<svg width="271" height="271" viewBox="0 0 271 271" fill="none" xmlns="http://www.w3.org/2000/svg">
<path d="M65.4826 162.752C65.4826 162.752 42.1107 70.9398 44.6087 70.0282C47.1067 69.1165 200.733 41.9019 202.243 45.7949C203.753 49.688 210.872 138.435 208.262 140.803C205.652 143.17 65.987 164.785 65.4826 162.752Z" fill="white"/>
<path d="M66.5785 162.392C66.2362 161.102 65.948 159.851 65.6057 158.56C64.7518 155.19 63.8907 151.773 63.0368 148.403C61.8191 143.601 60.6481 138.793 59.47 133.937C58.0901 128.394 56.7571 122.843 55.4241 117.291C54.0838 111.694 52.7436 106.096 51.4502 100.491C50.3045 95.5342 49.1589 90.5779 48.1069 85.6072C47.3576 81.981 46.5614 78.362 45.9527 74.7142C45.859 74.1051 45.7582 73.449 45.6645 72.8399C45.6429 72.6993 45.6213 72.5587 45.5997 72.4181C45.5781 72.2775 45.5349 71.9964 45.5637 72.1838C45.5277 71.9495 45.5457 71.7549 45.5097 71.5206C45.4593 71.1926 45.4557 70.8574 45.4521 70.5221C45.4377 70.4284 45.463 70.2806 45.4954 70.1797C45.5279 70.0788 45.463 70.2806 45.463 70.2806C45.463 70.2806 45.5819 70.1185 45.4161 70.2879C45.2503 70.4572 44.3635 70.9293 44.9114 70.7492C44.3635 70.9293 44.9583 70.742 45.1457 70.7132C45.7945 70.5654 46.4506 70.4646 47.0994 70.3169C49.4748 69.8558 51.8574 69.4415 54.186 68.9876C57.7797 68.3392 61.3266 67.698 64.8735 67.0568C69.4044 66.2643 73.8813 65.4322 78.4122 64.6397C83.5991 63.7464 88.833 62.8459 94.0199 61.9525C99.6755 60.9872 105.284 60.029 110.94 59.0637C116.736 58.0767 122.539 57.1366 128.288 56.1568C134.045 55.2239 139.754 54.2982 145.511 53.3653C150.893 52.49 156.328 51.6544 161.724 50.8728C166.551 50.1308 171.384 49.4357 176.171 48.7478C180.161 48.1823 184.112 47.6709 188.117 47.1992C190.989 46.8535 193.869 46.5546 196.764 46.3495L197.146 46.3387L197.333 46.3099L198.051 46.2956C198.48 46.2776 198.909 46.2596 199.338 46.2417C199.673 46.2381 200.008 46.2345 200.35 46.2778L200.74 46.3139C200.444 46.2634 200.639 46.2815 200.841 46.3464C200.941 46.3788 201.183 46.3896 200.988 46.3716C200.887 46.3391 200.841 46.3464 200.988 46.3716C201.089 46.4041 200.934 46.3319 200.88 46.2923C201.003 46.4653 200.797 46.0652 200.873 46.2454C200.887 46.3391 200.902 46.4329 200.963 46.5194C201.132 47.3088 201.255 48.1054 201.377 48.902C201.835 52.1893 202.144 55.4514 202.468 58.8072C202.944 63.7707 203.426 68.781 203.808 73.7588C204.279 79.6342 204.743 85.4627 205.161 91.2984C205.593 97.2278 205.971 103.118 206.356 109.054C206.687 114.328 206.964 119.561 207.154 124.856C207.309 128.67 207.416 132.491 207.376 136.286C207.354 137.393 207.34 138.546 207.224 139.667C207.206 139.862 207.188 140.056 207.116 140.211C207.044 140.366 206.994 140.662 207.059 140.46C207.026 140.561 206.994 140.662 206.954 140.716C206.979 140.568 207.159 140.493 207.286 140.377C207.498 140.201 207.325 140.323 207.239 140.384C207.725 140.118 207.419 140.309 207.239 140.384C206.965 140.475 206.738 140.557 206.457 140.601C206.089 140.705 205.721 140.81 205.346 140.867C205.714 140.763 205.487 140.846 205.299 140.874L204.932 140.979L204.189 141.141C201.407 141.761 198.609 142.287 195.859 142.805C191.851 143.565 187.835 144.279 183.86 144.938C178.954 145.788 174.041 146.591 169.128 147.395C163.652 148.284 158.177 149.174 152.655 150.071C146.852 151.011 141.041 151.904 135.277 152.79C129.467 153.683 123.703 154.57 117.932 155.409C112.489 156.197 107.054 157.033 101.604 157.775C96.8169 158.463 92.0229 159.104 87.2361 159.792C83.4261 160.282 79.6233 160.818 75.7592 161.268C73.2144 161.564 70.6696 161.859 68.1104 162.061L67.494 162.107L67.4472 162.115L67.2057 162.104C66.9173 162.1 66.6362 162.143 66.3478 162.14L66.0919 162.035C65.8973 162.017 65.7891 161.938 66.0919 162.035C66.0775 161.941 66.5424 162.158 66.5785 162.392C66.2794 161.383 63.9941 162.118 64.34 163.12C64.6859 164.122 67.3893 163.61 68.0129 163.61C70.5253 163.416 73.0701 163.121 75.568 162.833C79.3852 162.39 83.2421 161.893 87.0448 161.356C91.8857 160.708 96.6798 160.067 101.513 159.372C107.003 158.576 112.493 157.78 117.983 156.984C123.847 156.13 129.705 155.23 135.562 154.329C141.419 153.429 147.277 152.528 153.127 151.581C158.696 150.677 164.218 149.78 169.787 148.876C174.7 148.073 179.653 147.215 184.559 146.365C188.534 145.706 192.55 144.993 196.558 144.233C199.309 143.714 202.059 143.195 204.795 142.583C205.678 142.399 206.554 142.169 207.43 141.938C207.985 141.805 208.525 141.578 209.052 141.257C209.603 140.788 209.737 140.096 209.823 139.412C209.946 138.337 210.015 137.224 210.036 136.117C210.116 132.267 209.961 128.454 209.807 124.64C209.616 119.345 209.325 114.018 208.994 108.745C208.649 102.754 208.21 96.7775 207.763 90.7544C207.339 84.8718 206.914 78.9893 206.396 73.1211C205.96 68.1036 205.532 63.133 205.049 58.1227C204.725 54.7669 204.401 51.4111 203.929 48.03C203.854 47.2262 203.739 46.4764 203.522 45.6942C203.403 45.2329 203.011 44.8616 202.52 44.793C200.974 44.4072 199.186 44.634 197.618 44.7312C194.764 44.8822 191.891 45.228 189.065 45.5665C185.06 46.0382 181.063 46.5568 177.073 47.1222C172.232 47.7705 167.358 48.5197 162.525 49.2148C157.089 50.0504 151.606 50.8933 146.171 51.7289C140.367 52.669 134.611 53.6019 128.808 54.542C122.957 55.4894 117.068 56.4907 111.225 57.4849C105.522 58.4575 99.8198 59.4301 94.1174 60.4026C88.8836 61.3032 83.6498 62.2037 78.4232 63.1511C73.8922 63.9436 69.4082 64.7288 64.8845 65.5682C61.3376 66.2094 57.7907 66.8506 54.1969 67.499C51.9153 67.9457 49.5795 68.3527 47.2978 68.7994C46.321 68.9975 44.4574 69.0442 43.7761 69.9164C43.3723 70.4102 43.4876 71.1599 43.4875 71.7835C43.5667 72.9225 43.7396 74.0471 43.9125 75.1718C44.4744 78.8268 45.2706 82.4458 46.0127 86.0251C47.0718 91.0427 48.2247 96.0458 49.3776 101.049C50.6781 106.701 52.0256 112.346 53.373 117.99C54.7205 123.635 56.1076 129.226 57.4406 134.777C58.6187 139.632 59.8437 144.481 61.0687 149.329C61.9226 152.699 62.7836 156.116 63.6447 159.533C63.9258 160.737 64.2608 161.981 64.5887 163.178C64.585 164.09 66.8703 163.354 66.5785 162.392Z" fill="#CD5357"/>
<path d="M123.779 60.8312C123.779 60.8312 121.638 61.2563 123.061 63.3398C124.485 65.4234 126.056 64.4143 126.248 62.85C126.439 61.2857 124.586 60.4672 123.779 60.8312Z" fill="#CD5357"/>
<path d="M69.2125 169.853C69.2125 169.853 53.6054 199.69 55.4364 199.744C57.2675 199.798 229.987 172.91 230.365 170.693C230.744 168.477 210.269 149.8 208.946 148.372C207.624 146.945 69.2125 169.853 69.2125 169.853Z" fill="white"/>
<path d="M68.3331 169.125C65.3695 174.809 62.4601 180.533 59.6587 186.336C58.0183 189.706 56.3779 193.076 55.0474 196.59C54.8131 197.25 54.2471 198.248 54.4092 198.99C54.7803 199.845 55.5444 200.447 56.4311 200.598C57.1953 200.577 57.945 200.462 58.6876 200.299C60.2808 200.054 61.8812 199.856 63.4744 199.611C68.7695 198.797 74.0646 197.983 79.3596 197.169C86.7634 196.031 94.1671 194.893 101.611 193.701C110.272 192.321 118.988 190.981 127.65 189.602C136.827 188.143 145.957 186.691 155.127 185.186C163.969 183.731 172.811 182.275 181.7 180.813C189.37 179.538 197.034 178.216 204.697 176.894C210.399 175.921 216.142 174.895 221.822 173.782C224.76 173.234 227.806 172.766 230.639 171.851C230.772 171.782 231.147 171.724 231.266 171.562C231.544 171.184 230.953 170.459 230.762 170.153C229.843 168.855 228.837 167.619 227.698 166.451C226.192 164.764 224.606 163.185 223.02 161.606C219.788 158.361 216.475 155.225 213.156 152.042C212.093 151.054 211.03 150.066 210.013 149.071L209.79 148.866C209.613 148.653 209.39 148.448 209.173 148.289C208.889 147.997 208.471 147.774 208.067 147.644C207.274 147.478 206.25 147.683 205.446 147.759C203.558 147.953 201.723 148.187 199.841 148.429C193.681 149.232 187.536 150.129 181.397 151.072C173.143 152.293 164.895 153.561 156.655 154.876C147.572 156.32 138.488 157.765 129.405 159.209C120.696 160.596 111.995 162.029 103.286 163.416L82.2755 166.838L70.0669 168.859L68.4268 169.111C68.1456 169.154 68.8232 169.817 68.8773 169.857C69.1007 170.063 69.7314 170.733 70.1063 170.675L76.5657 169.634L93.4061 166.854C101.264 165.55 109.176 164.285 117.041 163.028C125.984 161.606 134.92 160.136 143.863 158.713C152.618 157.319 161.327 155.933 170.089 154.585C177.446 153.454 184.803 152.323 192.167 151.239C196.907 150.559 201.687 149.824 206.456 149.331C207.494 149.219 208.485 149.115 209.491 149.104C209.631 149.082 209.772 149.061 209.631 149.082C209.31 149.18 207.919 147.619 208.55 148.289C208.726 148.502 208.896 148.668 209.112 148.826C210.074 149.782 211.084 150.73 212.093 151.678C215.351 154.774 218.663 157.911 221.835 161.069C223.359 162.561 224.844 164.107 226.336 165.701C227.36 166.743 228.25 167.853 229.1 169.017C229.659 169.843 229.634 169.991 228.718 170.275C227.669 170.628 226.505 170.855 225.434 171.068C221.026 172.033 216.589 172.811 212.112 173.643C205.393 174.868 198.66 175.999 191.934 177.177C183.661 178.593 175.428 179.954 167.149 181.323C158.213 182.793 149.277 184.262 140.334 185.685C131.392 187.108 122.449 188.531 113.506 189.953C105.406 191.247 97.2997 192.493 89.2003 193.786C82.7806 194.773 76.314 195.767 69.8943 196.754C65.8176 197.381 61.7877 198 57.7037 198.58C56.8134 198.717 55.9627 198.8 55.0724 198.936C54.9787 198.951 54.885 198.965 54.8381 198.973L54.7913 198.98C56.7233 198.443 56.1751 201.117 56.3663 200.177C56.5646 199.283 56.8567 198.374 57.2028 197.506C58.6198 193.93 60.2999 190.506 61.9727 187.035C63.8367 183.247 65.7006 179.459 67.6186 175.711C68.5055 173.991 69.3528 172.326 70.2397 170.607C70.3695 170.203 68.398 168.923 68.3331 169.125Z" fill="#CD5357"/>
<path d="M58.082 202.599L55.4438 199.791L230.373 170.74C230.373 170.74 230.39 174.911 227.103 176.615C223.815 178.32 63.074 204.182 58.082 202.599Z" fill="#CD5357"/>
<path d="M58.6299 201.795L55.9917 198.987L55.8906 200.825L60.5693 200.058L73.2465 197.965L92.1416 194.821L115.012 191.017L140.226 186.853L165.527 182.628L189.288 178.687L209.214 175.384L223.664 172.971C225.914 172.625 228.217 172.319 230.445 171.832L230.726 171.789L229.263 170.383C229.259 171.919 228.718 173.393 227.698 174.557C227.287 175.004 226.815 175.364 226.281 175.638C226.328 175.631 226.602 175.541 226.414 175.57L226.14 175.66C225.311 175.883 224.475 176.06 223.639 176.236C220.013 176.986 216.318 177.602 212.677 178.257C206.935 179.284 201.186 180.264 195.383 181.204C188.181 182.407 180.932 183.617 173.723 184.773C165.717 186.052 157.672 187.385 149.659 188.617C141.419 189.931 133.172 191.199 124.925 192.467C117.099 193.67 109.321 194.866 101.535 196.015C94.8267 196.998 88.0718 197.989 81.3565 198.925C76.3282 199.602 71.3467 200.272 66.3039 200.855C65.3127 200.96 64.7972 201.039 63.7591 201.151C63.0022 201.219 62.2452 201.287 61.4883 201.356C60.497 201.46 59.4986 201.518 58.4929 201.528C58.3524 201.55 58.2046 201.525 58.1037 201.492C58.3524 201.55 57.7684 201.496 58.1037 201.492C56.6908 201.038 56.8888 203.262 57.9989 203.619C58.6909 203.752 59.4154 203.785 60.1255 203.724C61.4592 203.663 62.8325 203.547 64.1986 203.385C68.78 202.921 73.3397 202.316 77.8995 201.711C84.3408 200.864 90.7208 199.932 97.1477 198.992C104.793 197.864 112.485 196.73 120.123 195.556C128.37 194.288 136.664 193.013 144.904 191.698C153.144 190.383 161.384 189.069 169.624 187.754C177.115 186.554 184.598 185.308 192.081 184.062C198.252 183.017 204.423 181.973 210.594 180.928C214.75 180.193 218.906 179.458 223.055 178.677C225.805 178.158 228.465 177.989 230.12 175.336C230.924 174.013 231.371 172.553 231.375 171.018C231.407 170.293 230.831 169.663 230.106 169.63C230.059 169.637 230.012 169.644 229.919 169.659L225.193 170.433L212.516 172.526L193.621 175.671L170.656 179.489L145.395 183.66L120.088 187.838L96.3267 191.779L76.4008 195.082L61.9501 197.495C59.7081 197.888 57.3976 198.147 55.1699 198.634L54.8888 198.677C53.9516 198.821 54.3876 200.097 54.7877 200.515L57.4258 203.323C57.7718 203.702 58.3557 203.756 58.7811 203.403C58.828 203.396 58.8208 203.349 58.8676 203.342C59.3254 202.887 58.9831 202.221 58.6299 201.795Z" fill="#CD5357"/>
<path d="M84.1672 174.462L87.213 173.994L95.4062 172.686L107.622 170.712L122.415 168.342L138.708 165.742L155.047 163.134L170.402 160.677L183.274 158.602L192.592 157.122C194.045 156.899 195.544 156.668 196.99 156.398L197.177 156.369C197.646 156.297 197.332 155.818 197.116 155.659C196.777 155.328 196.319 155.158 195.844 155.183L192.798 155.651L184.605 156.959L172.389 158.933L157.596 161.303L141.256 163.911L124.917 166.519L109.561 168.975L96.6896 171.05L87.3718 172.53C85.9192 172.754 84.4197 172.984 82.9742 173.254L82.7868 173.283C82.3182 173.355 82.6318 173.835 82.848 173.993C83.2337 174.318 83.6914 174.487 84.1672 174.462Z" fill="#CD5357"/>
<path d="M80.9618 181.382L84.1951 180.885L92.9037 179.498L105.822 177.416L121.506 174.909L138.782 172.157L156.106 169.398L172.398 166.798L186.067 164.6L195.947 163.033C197.493 162.796 199.04 162.558 200.579 162.273L200.766 162.245C201.228 162.126 201.667 161.866 201.945 161.488C202.183 161.163 202.068 161.037 201.693 161.095L198.459 161.592L189.751 162.979L176.832 165.061L161.149 167.568L143.872 170.319L126.549 173.079L110.256 175.679L96.5876 177.876L86.7076 179.443C85.1612 179.681 83.6149 179.919 82.0757 180.203L81.8883 180.232C81.4269 180.351 80.9871 180.61 80.7095 180.989C80.4716 181.313 80.5869 181.439 80.9618 181.382Z" fill="#CD5357"/>
<path d="M78.1821 188.573L81.6028 188.047L90.8737 186.574L104.683 184.355L121.397 181.689L139.845 178.757L158.34 175.818L175.71 173.052L190.269 170.718L200.805 169.05C202.445 168.798 204.132 168.539 205.765 168.24L205.999 168.204C206.468 168.132 206.908 167.872 207.139 167.501C207.315 167.09 206.872 167.014 206.544 167.065L203.076 167.598L193.805 169.071L179.996 171.29L163.282 173.955L144.92 176.826L126.426 179.765L109.055 182.531L94.4964 184.865L83.9135 186.54C82.2734 186.792 80.5865 187.052 78.9536 187.351L78.7193 187.387C78.2507 187.459 77.811 187.718 77.5874 188.136C77.4108 188.547 77.8541 188.623 78.1821 188.573Z" fill="#CD5357"/>
<path d="M119.928 163.4L118.234 171.095L115.554 183.307L114.934 186.137C114.753 186.836 116.282 188.04 116.512 187.045L118.207 179.35L120.88 167.091L121.5 164.262C121.633 163.57 120.159 162.405 119.928 163.4Z" fill="#CD5357"/>
<path d="M138.87 160.872L142.126 182.052C142.256 182.896 144.058 182.139 143.95 181.436L140.694 160.256C140.564 159.412 138.762 160.169 138.87 160.872Z" fill="#CD5357"/>
<path d="M157.902 157.994L161.708 164.652L167.748 175.235L169.128 177.661C169.251 177.834 170.916 176.811 170.725 176.504L166.919 169.846L160.879 159.263L159.499 156.837C159.37 156.617 157.704 157.641 157.902 157.994Z" fill="#CD5357"/>
<path d="M92.0794 168.832L88.8994 176.229L83.823 188.137L82.6584 190.858C82.37 191.478 84.3489 191.558 84.5976 190.992L87.7776 183.596L92.8144 171.741L93.979 169.02C94.2602 168.353 92.2813 168.274 92.0794 168.832Z" fill="#CD5357"/>
<path d="M182.056 155.672C181.793 155.52 182.002 155.632 182.117 155.758C182.233 155.884 182.395 156.003 182.564 156.169C183.011 156.58 183.418 157.045 183.819 157.463C185.087 158.851 186.356 160.239 187.578 161.634C190.244 164.63 192.811 167.593 195.438 170.643L197.244 172.715C197.543 173.101 198.127 173.155 198.512 172.856C198.819 172.665 199.302 172.063 198.956 171.685C197.265 169.738 195.629 167.831 193.939 165.885C191.196 162.709 188.461 159.58 185.592 156.519C185.077 155.975 184.615 155.47 184.1 154.926C183.815 154.634 183.531 154.342 183.159 154.111C182.222 153.632 181.011 155.113 182.056 155.672Z" fill="#CD5357"/>
<path d="M53.731 77.2598L194.73 55.5839L202.464 134.595L70.782 156.661L53.731 77.2598Z" fill="white"/>
<path d="M54.4771 78.0564L189.759 57.2593C191.587 56.9784 193.422 56.7443 195.242 56.4165L195.476 56.3804L193.667 55.2196L194.441 63.063L196.284 81.9183L198.545 104.739L200.479 124.491L201.098 131.016L201.314 133.045C201.318 133.38 201.328 133.762 201.433 134.13C201.44 134.177 201.447 134.224 201.454 134.27L201.786 133.932L198.279 134.519L188.694 136.136L174.525 138.506L157.176 141.413L138.281 144.558L119.199 147.731L101.381 150.71L86.3214 153.217L75.4717 155.029C73.7848 155.288 72.051 155.555 70.3244 155.868L70.0901 155.904L71.8706 156.878L70.1774 148.984L66.0993 129.944L61.1962 107.098L56.9415 87.2228L55.5581 80.7202C55.3528 79.6965 55.1871 78.6187 54.888 77.6094C54.8808 77.5626 54.8736 77.5157 54.8664 77.4689C54.7043 76.7263 52.5633 75.9043 52.7831 77.0217L54.4763 84.9157L58.5472 103.908L63.4503 126.754L67.705 146.63L69.0884 153.132C69.2937 154.156 69.4594 155.234 69.7585 156.243C69.7657 156.29 69.7729 156.337 69.7801 156.384C69.9278 157.032 71.0055 157.49 71.5606 157.357L75.0678 156.77L84.6523 155.152L98.8218 152.782L116.171 149.875L135.066 146.731L154.148 143.557L171.965 140.579L187.025 138.072L197.875 136.26C199.562 136 201.296 135.734 203.022 135.42L203.257 135.384C203.444 135.356 203.57 135.24 203.588 135.046L202.814 127.202L200.971 108.347L198.71 85.5267L196.776 65.7739C196.474 62.5586 196.226 59.3831 195.829 56.1822C195.822 56.1354 195.815 56.0885 195.808 56.0417C195.739 55.2847 194.654 54.78 193.998 54.8808L58.7162 75.6779C56.8887 75.9588 55.054 76.1929 53.2337 76.5207L52.9994 76.5567C52.4371 76.6432 52.7182 77.2235 52.9488 77.4759C53.3489 77.894 53.9075 78.0959 54.4771 78.0564Z" fill="#CD5357"/>
<path d="M55.5936 85.3196L59.2883 84.7036L69.3017 83.0683L84.2282 80.6298L102.294 77.7086L122.235 74.4992L142.222 71.2827L160.991 68.2534L176.714 65.6924L188.133 63.841C189.914 63.5672 191.694 63.2935 193.515 62.9657L193.749 62.9297C195.155 62.7136 195.126 60.6554 193.58 60.8931L189.885 61.5091L179.872 63.1444L164.938 65.5361L146.872 68.4573L126.932 71.6666L106.944 74.8832L88.1754 77.9124L72.4524 80.4735L61.08 82.3177C59.2994 82.5914 57.5187 82.8651 55.6984 83.1929L55.4641 83.229C54.0187 83.4991 54.0941 85.5501 55.5936 85.3196Z" fill="#CD5357"/>
<path d="M195.579 67.9726L91.6746 84.7614L88.8169 78.9651" fill="white"/>
<path d="M194.682 67.4391L191.917 67.8641L184.333 69.078L173.148 70.8934L159.527 73.0834L144.553 75.5291L129.486 77.9893L115.443 80.2441L103.555 82.1676L95.0339 83.5255C93.675 83.7344 92.3161 83.9433 90.9644 84.1991L90.777 84.2279L92.7773 85.0716L89.8728 79.2824C89.6674 78.8823 88.9681 78.702 88.5644 78.5722C88.4635 78.5398 87.5156 78.3018 87.6597 78.6154L90.5715 84.4514C90.7913 84.9452 92.0564 85.3743 92.5719 85.295L95.3366 84.87L102.921 83.6562L114.105 81.8408L127.727 79.6508L142.7 77.205L157.775 74.7917L171.818 72.5369L183.706 70.6134L192.274 69.2483L196.343 68.5747L196.531 68.5459C196.999 68.4738 196.466 68.1242 196.257 68.0124C195.77 67.6555 195.219 67.5004 194.682 67.4391Z" fill="#CD5357"/>
<path d="M66.5116 85.512C66.5116 85.512 65.3473 85.7389 66.1041 86.9177C66.8609 88.0964 67.7801 87.5234 67.8848 86.6439C67.9894 85.7645 66.9117 85.3066 66.5116 85.512Z" fill="white"/>
<path d="M65.4699 85.2882C65.1887 85.3315 64.922 85.4684 64.7633 85.6846C64.3992 86.1244 64.8822 86.7696 65.1741 87.1085C65.5669 87.4798 66.0716 87.642 66.6014 87.6565C66.9979 87.7395 67.4268 87.7215 67.8558 87.7035C67.9495 87.6891 68.0901 87.6675 68.1838 87.6531C68.3244 87.6315 68.4577 87.563 68.5911 87.4945C69.0237 87.1882 69.1643 86.543 68.8977 86.0564C68.7066 85.75 68.3895 85.5589 68.0867 85.4615C67.5821 85.2993 66.991 85.1983 66.4611 85.1838C66.1728 85.1802 65.8844 85.1765 65.6032 85.2198C65.5095 85.2342 65.4158 85.2486 65.3293 85.3098C65.1959 85.3783 65.3978 85.4432 65.4518 85.4829C65.6537 85.5478 65.9024 85.6055 66.1439 85.6163C66.4394 85.6668 66.7278 85.6704 67.063 85.6669C67.2577 85.6849 67.4451 85.6561 67.6253 85.5804L67.719 85.566L67.5785 85.5876L67.6253 85.5804C67.719 85.566 67.391 85.6165 67.5316 85.5948C67.2973 85.6309 67.0558 85.62 66.8071 85.5623L66.5584 85.5046L66.3097 85.4469C66.4106 85.4794 66.0141 85.3964 66.1619 85.4217C66.3097 85.4469 65.9601 85.3568 66.061 85.3892C66.1151 85.4289 66.1619 85.4217 66.216 85.4613L66.1079 85.382C66.3169 85.4938 66.4791 85.6127 66.6016 85.7858L66.5476 85.7461C66.807 86.1859 66.7457 86.723 66.4213 87.1086L66.4609 87.0545C66.3816 87.1627 66.2482 87.2311 66.1076 87.2527L66.2482 87.2311L66.1545 87.2455C66.2482 87.2311 66.3888 87.2095 66.4897 87.242C66.7781 87.2456 67.0196 87.2565 67.3151 87.307L67.5638 87.3646L67.7585 87.3827C67.6576 87.3502 67.9603 87.4476 67.8594 87.4151C67.8125 87.4223 67.8053 87.3755 67.7585 87.3827L67.8594 87.4151C67.6504 87.3034 67.4269 87.0979 67.2972 86.878L67.3512 86.9177C67.1062 86.5716 66.8863 86.0778 67.2649 85.7318L67.2252 85.7859C67.3514 85.6705 67.4847 85.6021 67.665 85.5264L67.5244 85.548L67.5713 85.5408C67.6181 85.5336 67.665 85.5264 67.7046 85.4723C67.7515 85.4651 67.7443 85.4182 67.6902 85.3786C67.6362 85.3389 67.5352 85.3065 67.4884 85.3137C67.3875 85.2812 67.2865 85.2488 67.1388 85.2235C66.8432 85.173 66.5476 85.1225 66.2124 85.1261C65.9925 85.2558 65.7042 85.2522 65.4699 85.2882Z" fill="#CD5357"/>
<path d="M72.0482 84.7088C72.0482 84.7088 70.8839 84.9357 71.6407 86.1145C72.4372 87.2391 73.3168 86.7202 73.4214 85.8407C73.526 84.9612 72.4952 84.4961 72.0482 84.7088Z" fill="white"/>
<path d="M72.5563 83.959C72.4157 83.9806 72.2824 84.0491 72.149 84.1176C71.6552 84.3374 71.2226 84.6437 70.8513 85.0366C70.5521 85.2744 70.4151 85.6313 70.4258 86.0133C70.4763 86.3414 70.6204 86.655 70.8583 86.9542C71.0421 87.2137 71.3124 87.412 71.662 87.5021C72.2459 87.5563 72.8407 87.3689 73.3129 87.0085C73.7923 86.695 74.1565 86.2553 74.3656 85.7435C74.654 85.1235 74.3982 84.3954 73.7782 84.107C73.7242 84.0673 73.6773 84.0745 73.6232 84.0348C73.2123 83.8582 72.7365 83.8834 72.3364 84.0888C72.0697 84.2257 71.8029 84.3626 71.5506 84.5933C71.4172 84.6618 71.3379 84.7699 71.2586 84.878C71.1721 84.9393 71.1396 85.0402 71.0603 85.1483C71.0279 85.2493 71.0098 85.4439 71.1648 85.516C71.3595 85.5341 71.5937 85.498 71.774 85.4224L71.8208 85.4152L71.5937 85.498L71.6875 85.4836L71.5 85.5124C71.5469 85.5052 71.6406 85.4908 71.6947 85.5305L71.5469 85.5052C71.7415 85.5233 71.9506 85.635 72.1596 85.7468L72.0515 85.6675C72.2677 85.8261 72.3903 85.9991 72.4732 86.2262L72.4515 86.0857C72.4804 86.2731 72.502 86.4137 72.4299 86.5687L72.4551 86.4209C72.4227 86.5218 72.3902 86.6227 72.3109 86.7308L72.4299 86.5687L72.3578 86.7236L72.5164 86.5074L72.4299 86.5687L72.5957 86.3993L72.5488 86.4065C72.4623 86.4677 72.5488 86.4065 72.7615 86.2299C72.5885 86.3524 73.0679 86.0389 72.9345 86.1073C72.8012 86.1758 73.2482 85.9632 73.1616 86.0245L73.1148 86.0317L73.3419 85.9488L73.2482 85.9632L73.4356 85.9344C73.3887 85.9416 73.295 85.956 73.2482 85.9632L73.3959 85.9884C73.2482 85.9632 73.0932 85.8911 72.985 85.8118L73.0932 85.8911C72.7688 85.6532 72.5237 85.3071 72.4192 84.9394L72.4408 85.08C72.4192 84.9394 72.4048 84.8457 72.4301 84.6979L72.4048 84.8457C72.3976 84.7989 72.4373 84.7448 72.4769 84.6907L72.358 84.8529L72.4373 84.7448L72.2787 84.961L72.3183 84.907C72.2787 84.961 72.1921 85.0223 72.1525 85.0764C72.1921 85.0223 71.8064 85.3214 71.9795 85.1989C72.1525 85.0764 71.6262 85.3971 71.7596 85.3286L71.8064 85.3214L71.6262 85.3971L71.7199 85.3827L71.4928 85.4656L71.5865 85.4512C71.8605 85.3611 72.1272 85.2242 72.3471 85.0944C72.567 84.9647 72.7725 84.7412 72.978 84.5178C73.0573 84.4096 73.2159 84.1934 73.1006 84.0672C72.9853 83.9411 72.6969 83.9374 72.5563 83.959Z" fill="#CD5357"/>
<path d="M77.7181 83.8372C77.7181 83.8372 76.5538 84.0641 77.3107 85.2429C78.1071 86.3676 78.9867 85.8486 79.0913 84.9691C79.1959 84.0897 78.1182 83.6318 77.7181 83.8372Z" fill="white"/>
<path d="M76.9215 83.3359C76.5935 83.3863 76.2871 83.5773 76.042 83.8548C75.5986 84.4027 76.049 85.1488 76.4491 85.567C76.9032 86.0248 77.4222 86.2808 78.0602 86.3746C78.4567 86.4575 78.8388 86.4468 79.2064 86.3423C79.4407 86.3063 79.6138 86.1837 79.7868 86.0612C79.9995 85.8846 80.1509 85.6215 80.2086 85.3728C80.3059 85.07 80.2555 84.742 80.1114 84.4284C79.8519 83.9886 79.4663 83.6642 78.9689 83.5488C78.5652 83.419 78.1615 83.2892 77.7325 83.3071C77.3901 83.2638 77.0152 83.3215 76.7016 83.4656C76.5611 83.4872 76.4962 83.6891 76.5178 83.8297C76.5934 84.0099 76.8566 84.1613 77.0043 84.1866C77.3071 84.2839 77.6099 84.3813 77.8982 84.3849C78.1397 84.3957 78.4209 84.3525 78.648 84.2696L78.6948 84.2624L78.5146 84.3381C78.5615 84.3309 78.5615 84.3309 78.6083 84.3237L78.4677 84.3453L78.1794 84.3417L78.2731 84.3273L77.9775 84.2768L78.0785 84.3092L77.7829 84.2587L77.9307 84.284L77.6748 84.1794L77.8298 84.2515L77.6207 84.1398C77.6748 84.1794 77.7757 84.2119 77.837 84.2984L77.6748 84.1794C77.7829 84.2587 77.8442 84.3452 77.9054 84.4318L77.7901 84.3056C77.8586 84.439 77.927 84.5723 77.9487 84.7129L77.9126 84.4786C77.9487 84.7129 77.891 84.9616 77.7792 85.1707L77.8585 85.0625C77.7864 85.2175 77.7071 85.3256 77.5809 85.441L77.7071 85.3256C77.6674 85.3797 77.5737 85.3941 77.5269 85.4013L77.7071 85.3256L77.5665 85.3473L77.8008 85.3112L77.7071 85.3256L77.9954 85.3293L77.9017 85.3437L78.1973 85.3942L78.1504 85.4014L78.446 85.4519L78.3451 85.4194L78.601 85.524L78.5001 85.4915L78.7091 85.6033C78.655 85.5637 78.601 85.524 78.5469 85.4843L78.7091 85.6033C78.5938 85.4771 78.4316 85.3582 78.3631 85.2248L78.4784 85.351C78.3018 85.1383 78.219 84.9112 78.1829 84.6769L78.2046 84.8175C78.1829 84.6769 78.2082 84.5291 78.2407 84.4282L78.1613 84.5363C78.1938 84.4354 78.2803 84.3741 78.3668 84.3129L78.2407 84.4282C78.3272 84.3669 78.4137 84.3057 78.5074 84.2913L78.3272 84.3669C78.374 84.3597 78.4209 84.3525 78.4209 84.3525C78.5615 84.3309 78.7813 84.2012 78.8066 84.0534C78.8318 83.9056 78.6624 83.7398 78.5075 83.6677C78.075 83.3504 77.4838 83.2494 76.9215 83.3359Z" fill="#CD5357"/>
<path d="M143.487 165.63C143.487 165.63 133.413 132.547 124.942 131.739C100.27 129.44 103.52 167.745 103.52 167.745L143.487 165.63Z" fill="#000005"/>
<path d="M144.597 165.364C144.14 163.947 143.675 162.484 143.217 161.067C142.082 157.74 140.853 154.427 139.531 151.129C138.043 147.377 136.327 143.707 134.392 140.167C132.875 137.475 131.12 134.483 128.619 132.565C127.638 131.804 126.467 131.361 125.213 131.314C123.126 131.155 120.988 131.292 118.948 131.749C115.462 132.477 112.283 134.261 109.85 136.841C107.643 139.339 106.025 142.226 104.972 145.362C103.919 148.497 103.169 151.731 102.768 155.054C102.429 157.84 102.231 160.605 102.227 163.387C102.169 164.883 102.205 166.365 102.342 167.879C102.349 167.925 102.363 168.019 102.37 168.066C102.406 168.3 102.875 168.228 103.023 168.253L116.532 167.52L138.037 166.372L142.935 166.099C143.411 166.074 144.161 165.958 144.493 165.62C144.824 165.281 144.24 165.227 143.952 165.223L130.442 165.957L108.877 167.018L103.978 167.291L104.63 167.479C104.386 164.015 104.429 160.554 104.761 157.098C105.285 150.83 106.616 144.198 110.167 138.903C111.017 137.573 112.084 136.402 113.267 135.356C114.41 134.365 115.682 133.594 117.077 132.996L117.351 132.906L117.445 132.892L117.993 132.711L118.22 132.628C118.541 132.531 117.993 132.711 118.313 132.614L119.056 132.452L119.384 132.402C119.103 132.445 119.478 132.387 119.478 132.387L120.134 132.286C120.602 132.214 120.891 132.218 121.46 132.178C122.365 132.135 123.331 132.178 124.21 132.283C124.257 132.276 124.452 132.294 124.257 132.276L124.405 132.301L124.755 132.391C125.003 132.449 125.212 132.561 125.421 132.673C127.93 134.014 129.642 136.724 131.109 139.089C133.062 142.434 134.795 145.909 136.309 149.514C138.557 154.78 140.539 160.184 142.24 165.63L142.33 165.904C142.456 166.412 144.763 165.818 144.597 165.364Z" fill="#000005"/>
<path d="M160.223 198.985C159.105 200.451 158.405 202.142 158.157 203.955C157.688 207.145 164.932 210.588 172.098 210.398C179.264 210.207 176.82 206.17 169.01 203.102C161.199 200.034 160.223 198.985 160.223 198.985Z" fill="#000005"/>
<path d="M159.303 198.934C158.496 199.921 157.905 201.068 157.515 202.279C157.216 203.14 156.931 204.095 157.068 204.985C157.216 205.634 157.497 206.215 158.005 206.712C159.173 208.068 160.932 208.9 162.615 209.553C164.803 210.368 167.135 210.873 169.503 210.988C171.637 211.14 174.077 211.101 176.031 210.081C177.184 209.472 178.031 208.43 177.26 207.158C176.352 205.618 174.618 204.638 173.108 203.863C170.863 202.673 168.48 201.84 166.123 200.859C164.789 200.297 163.448 199.688 162.187 198.97C161.877 198.826 161.607 198.628 161.336 198.429C160.828 197.932 158.727 198.927 159.289 199.464C159.451 199.583 159.613 199.702 159.822 199.813C160.612 200.268 161.394 200.675 162.216 201.028C163.874 201.829 165.611 202.521 167.348 203.213C169.449 204.089 171.544 204.919 173.382 206.267C174.139 206.822 175.598 207.893 175.335 208.989C175.303 209.089 175.27 209.19 175.191 209.298C175.144 209.306 175.104 209.36 175.191 209.298C175.144 209.306 175.057 209.367 175.011 209.374C175.238 209.291 174.917 209.389 174.87 209.396C174.776 209.41 174.643 209.479 174.549 209.493C174.409 209.515 174.268 209.536 174.081 209.565C173.565 209.644 172.996 209.684 172.466 209.669C170.267 209.72 168.058 209.388 165.945 208.753C164.197 208.302 162.539 207.502 161.026 206.392C160.431 205.955 159.962 205.404 159.627 204.784C159.27 204.023 159.411 203.378 159.577 202.585C159.808 201.59 160.194 200.668 160.68 199.777C160.832 199.514 160.99 199.298 161.142 199.035C161.221 198.927 161.545 198.541 161.214 198.88C161.499 198.548 161.448 198.22 160.965 198.199C160.262 198.307 159.722 198.534 159.303 198.934Z" fill="#000005"/>
<path d="M182.33 188.343C182.791 190.095 183.714 191.728 184.975 193.069C187.159 195.419 194.39 191.909 198.68 186.117C202.97 180.325 198.285 179.799 191.014 183.986C183.743 188.174 182.33 188.343 182.33 188.343Z" fill="#000005"/>
<path d="M181.238 188.415C181.638 190.08 182.413 191.688 183.526 193.004C184.085 193.829 184.849 194.431 185.764 194.77C186.417 194.958 187.102 195.044 187.805 194.936C189.679 194.648 191.442 193.945 193.013 192.936C194.985 191.722 196.719 190.208 198.276 188.482C199.542 187.04 200.998 185.281 201.326 183.36C201.586 181.929 200.653 180.538 199.269 180.271C197.629 179.899 195.805 180.516 194.316 181.128C191.872 182.079 189.687 183.471 187.434 184.728C186.021 185.521 184.507 186.281 183.026 186.941C182.759 187.078 182.438 187.175 182.164 187.265C181.937 187.348 181.836 187.316 182.164 187.265C180.705 187.442 181.198 189.716 182.517 189.561C183.689 189.381 184.882 188.718 185.902 188.178C187.769 187.219 189.583 186.221 191.389 185.176C193.14 184.091 195.076 183.266 197.048 182.675C197.643 182.487 198.259 182.441 198.883 182.441C198.641 182.43 198.937 182.48 199.03 182.466L199.178 182.491C199.373 182.509 199.131 182.498 199.131 182.498C199.257 182.383 199.283 182.859 199.178 182.491C199.232 182.531 199.239 182.578 199.293 182.617C199.239 182.578 199.07 182.412 199.232 182.531C199.394 182.65 199.095 182.264 199.171 182.444C199.178 182.491 199.254 182.671 199.157 182.351C199.178 182.491 199.2 182.632 199.171 182.444C199.193 182.585 199.16 182.686 199.135 182.834C199.16 182.686 199.11 182.981 199.135 182.834C199.102 182.935 199.11 182.981 199.077 183.082C198.81 183.843 198.435 184.524 197.952 185.126C195.739 188.2 192.577 191.037 188.937 192.316C188.255 192.565 187.513 192.727 186.796 192.741L186.601 192.723C186.313 192.719 186.796 192.741 186.507 192.737C186.359 192.712 186.212 192.687 186.057 192.615C186.01 192.622 185.855 192.55 186.104 192.608C186.049 192.568 185.949 192.535 185.894 192.496C185.84 192.456 185.732 192.377 185.949 192.535C185.894 192.496 185.84 192.456 185.732 192.377C184.939 191.587 184.32 190.675 183.88 189.688C183.729 189.327 183.577 188.967 183.473 188.599C183.383 188.325 183.509 188.833 183.458 188.505C183.451 188.458 183.444 188.412 183.437 188.365C183.343 187.756 182.795 187.312 182.164 187.265C181.649 187.344 181.245 187.838 181.324 188.354C181.231 188.368 181.231 188.368 181.238 188.415Z" fill="#000005"/>
<path d="M158.619 195.106C158.619 195.106 158.813 201.36 159.177 202.167C160.705 205.866 172.415 208.718 173.591 207.002C174.766 205.287 166.386 202.258 165.705 200.012C165.265 198.401 164.959 196.721 164.847 195.06L158.619 195.106Z" fill="white"/>
<path d="M157.761 194.518C157.772 195.524 157.83 196.522 157.894 197.568C157.955 198.901 157.937 200.343 158.28 201.633C158.636 203.018 159.869 204.171 160.997 204.957C162.388 205.894 163.891 206.623 165.513 207.189C167.088 207.762 168.681 208.141 170.307 208.418C171.388 208.588 172.664 208.776 173.713 208.422C174.989 207.986 174.398 206.638 173.793 205.82C172.841 204.623 171.472 203.826 170.203 203.062C169.461 202.601 168.772 202.179 168.077 201.71C167.705 201.48 167.381 201.242 167.049 200.957C166.995 200.917 166.61 200.593 166.779 200.759L166.61 200.593C166.602 200.546 166.379 200.34 166.494 200.467C166.61 200.593 166.44 200.427 166.433 200.38C166.426 200.333 166.372 200.294 166.433 200.38C166.494 200.467 166.494 200.467 166.433 200.38C166.527 200.366 166.516 200.607 166.44 200.427C166.365 200.247 166.426 200.333 166.447 200.474L166.372 200.294C166.217 199.598 166.008 198.862 165.9 198.16C165.792 197.457 165.655 196.566 165.579 195.763C165.532 195.146 164.805 194.155 164.134 194.162L157.96 194.248C157.484 194.273 157.902 195.12 157.977 195.3C158.23 195.693 158.644 196.205 159.174 196.22L165.349 196.134L163.896 194.486C163.975 196.249 164.289 197.976 164.782 199.626C165.233 200.996 166.444 202.009 167.572 202.795C168.7 203.581 170.17 204.41 171.345 205.189C171.616 205.387 171.933 205.578 172.203 205.777C172.311 205.856 172.419 205.935 172.528 206.015L172.69 206.133C172.906 206.292 172.574 206.007 172.744 206.173C172.798 206.213 173.083 206.505 172.913 206.339C173.029 206.465 172.729 206.079 172.859 206.299C172.737 206.126 172.845 206.206 172.715 205.986C172.776 206.072 172.762 205.978 172.683 206.087C172.524 206.303 172.304 206.433 172.07 206.469C171.601 206.541 171.086 206.62 170.596 206.551C169.193 206.479 167.809 206.212 166.458 205.844C164.958 205.451 163.484 204.911 162.082 204.215C161.509 203.919 160.929 203.577 160.435 203.173C160.381 203.133 160.103 202.888 160.265 203.007C160.157 202.928 160.042 202.802 159.934 202.722C160.11 202.935 159.826 202.643 159.934 202.722L159.819 202.596C159.757 202.51 159.71 202.517 159.873 202.636C159.819 202.596 159.682 202.329 159.819 202.596C159.811 202.549 159.757 202.51 159.75 202.463C159.66 202.189 159.786 202.697 159.757 202.51C159.75 202.463 159.707 202.182 159.736 202.369C159.692 202.088 159.649 201.807 159.646 201.471C159.57 200.668 159.502 199.911 159.473 199.1C159.394 197.961 159.369 196.861 159.344 195.762C159.257 195.2 158.944 194.72 158.464 194.41C158.334 194.19 157.722 193.949 157.761 194.518Z" fill="#000005"/>
<path d="M178.322 187.232C178.322 187.232 183.357 190.967 184.157 191.18C187.971 192.272 197.527 184.855 196.889 182.891C196.251 180.926 188.678 185.64 186.476 184.732C184.933 184.057 183.47 183.275 182.031 182.345L178.322 187.232Z" fill="white"/>
<path d="M177.241 187.686C178.052 188.281 178.863 188.876 179.72 189.464C180.369 189.939 181.011 190.368 181.652 190.797C182.085 191.115 182.51 191.385 182.975 191.601C184.2 192.085 185.804 191.598 186.994 191.223C188.685 190.676 190.292 189.901 191.77 188.906C193.169 188.02 194.546 186.993 195.768 185.893C196.565 185.147 197.534 184.279 197.898 183.215C198.796 180.631 192.867 182.934 192.092 183.197C191.317 183.46 190.415 183.838 189.586 184.062L189.493 184.076L189.172 184.173L188.898 184.263L188.757 184.285C188.53 184.368 188.296 184.404 188.054 184.393C187.719 184.397 187.416 184.299 187.153 184.148C186.487 183.867 185.813 183.538 185.178 183.156C184.544 182.774 183.762 182.367 183.113 181.891C182.897 181.732 182.169 181.988 181.942 182.071C181.574 182.175 181.221 182.374 180.929 182.658L177.172 187.553C176.974 187.823 178.044 187.611 178.091 187.603C178.607 187.524 179.054 187.312 179.425 186.919L183.181 182.024L180.997 182.792C182.349 183.783 183.866 184.605 185.495 185.218C186.706 185.608 188.162 185.096 189.266 184.782C190.776 184.31 192.225 183.752 193.681 183.24C194.089 183.082 194.503 182.97 194.925 182.905C195.206 182.862 195.501 182.912 195.685 183.172C196.067 183.785 195.213 184.779 194.842 185.172C193.901 186.228 192.891 187.151 191.72 187.955C190.563 188.852 189.29 189.623 187.949 190.261L187.495 190.427C187.542 190.42 187.135 190.578 187.315 190.503L187.174 190.524C186.947 190.607 186.767 190.683 186.533 190.719C186.118 190.83 185.635 190.809 185.239 190.726C184.781 190.556 184.363 190.333 183.984 190.055C183.343 189.626 182.654 189.204 182.006 188.728C181.094 188.101 180.175 187.427 179.302 186.746C179.025 186.501 178.131 186.926 177.857 187.016C177.778 187.124 176.97 187.488 177.241 187.686Z" fill="#000005"/>
<path d="M146.853 166.935C146.853 166.935 149.506 203.222 164.076 197.529C178.646 191.835 160.043 159.44 160.043 159.44L146.853 166.935Z" fill="white"/>
<path d="M145.736 166.532C146.06 170.511 146.626 174.501 147.519 178.441C148.171 181.746 149.144 184.955 150.344 188.08C151.447 190.884 152.877 193.638 155.072 195.747C157.144 197.683 160.089 199.053 162.994 198.606C165.867 198.261 168.376 196.484 169.656 193.889C171.001 191.092 170.918 187.747 170.504 184.741C169.949 181.133 169.02 177.582 167.723 174.136C165.968 169.273 163.806 164.569 161.243 160.071C161.182 159.984 161.168 159.89 161.114 159.851C160.876 159.551 160.544 159.267 160.187 159.13C159.931 159.025 159.358 158.73 159.045 158.874L147.535 165.44L145.902 166.362C145.549 166.56 146.385 167.008 146.493 167.087C146.756 167.238 147.545 167.693 147.899 167.494L159.455 160.921L161.088 159.998L159.027 159.068C161.077 162.734 162.908 166.53 164.472 170.463C165.848 173.801 166.998 177.221 167.78 180.747C168.497 183.85 168.914 187.192 168.344 190.349C167.811 193.117 166.307 195.507 163.719 196.768C162.519 197.384 161.214 197.633 159.866 197.6C159.624 197.589 159.376 197.532 159.181 197.514C158.932 197.456 159.383 197.579 159.134 197.521L158.932 197.456L158.73 197.391C159.033 197.488 158.785 197.431 158.73 197.391L158.529 197.326C158.885 197.463 158.63 197.359 158.529 197.326L158.32 197.214C158.63 197.359 158.42 197.247 158.32 197.214C158.219 197.182 157.948 196.984 158.165 197.142C158.01 197.07 157.847 196.951 157.732 196.825L157.678 196.785L157.509 196.62L157.231 196.375C157.008 196.169 156.784 195.964 156.554 195.711C156.099 195.253 155.685 194.741 155.31 194.176C154.452 192.964 153.728 191.685 153.184 190.329C151.858 187.319 150.853 184.212 150.168 181.008C149.494 178.185 149.001 175.287 148.554 172.382C148.309 170.789 148.245 169.12 148 167.527C147.985 167.433 147.978 167.386 147.964 167.292C147.884 166.777 145.718 166.103 145.736 166.532Z" fill="#000005"/>
<path d="M107.463 172.799C107.463 172.799 106.356 179.013 115.086 180.885C131.705 184.47 147.404 175.821 147.404 175.821C147.404 175.821 171.663 197.274 180.697 189.889C189.731 182.504 182.75 173.601 168.315 163.636C153.88 153.672 146.859 152.928 141.142 156.925C135.424 160.922 107.463 172.799 107.463 172.799Z" fill="white"/>
<path d="M106.468 173.192C106.302 174.609 106.565 176.007 107.282 177.24C109.034 180.52 112.98 181.544 116.379 182.125C125.091 183.568 134.153 181.983 142.307 178.859C144.124 178.196 145.919 177.392 147.599 176.462L146.506 176.534C148.233 178.092 150.085 179.534 151.977 180.922C155.791 183.885 159.842 186.524 164.131 188.838C167.941 190.843 172.46 192.786 176.88 192.203C179.23 191.889 181.093 190.596 182.705 188.909C184.482 187.053 185.838 184.638 185.769 182.01C185.687 179.289 184.393 176.802 182.775 174.7C180.598 171.773 177.769 169.282 174.875 166.993C171.325 164.181 167.623 161.632 163.763 159.3C160.948 157.526 157.888 156.03 154.738 154.883C152.55 154.068 150.185 153.664 147.799 153.743C145.756 153.866 143.744 154.511 141.978 155.502C140.565 156.294 139.267 157.213 137.854 158.006C137.414 158.266 137.014 158.471 136.567 158.684L136.34 158.767L135.98 158.918L135.179 159.329C134.112 159.877 133.038 160.377 131.971 160.925C127.188 163.195 122.343 165.379 117.545 167.556C114.355 168.958 111.165 170.359 107.968 171.714L107.474 171.934C107.128 172.179 106.483 172.662 106.468 173.192C106.461 173.769 106.991 173.783 107.398 173.625C109.608 172.709 111.81 171.747 113.966 170.792C118.551 168.792 123.129 166.745 127.692 164.605C131.769 162.731 135.846 160.857 139.764 158.576C140.384 158.241 140.95 157.866 141.516 157.491C141.909 157.239 142.302 156.987 142.702 156.781L142.882 156.706C142.882 156.706 142.702 156.781 142.836 156.713L143.102 156.576C143.329 156.493 143.549 156.363 143.776 156.28C144.591 155.963 145.42 155.74 146.318 155.65C147.262 155.553 148.221 155.549 149.147 155.647C151.692 155.975 154.161 156.746 156.446 157.882C159.863 159.515 163.175 161.405 166.289 163.564C169.868 165.94 173.289 168.532 176.511 171.394C178.853 173.528 181.192 175.951 182.637 178.798C183.665 180.799 184.219 183.16 183.444 185.294C183.033 186.364 182.42 187.37 181.638 188.21C181.18 188.664 180.722 189.118 180.203 189.485C180.03 189.608 180.423 189.356 180.164 189.539L179.904 189.723L179.637 189.86C179.417 189.99 179.771 189.792 179.504 189.929C179.324 190.004 179.143 190.08 178.963 190.156C178.916 190.163 178.642 190.253 178.783 190.231L178.556 190.314C178.141 190.426 177.72 190.491 177.244 190.516L177.056 190.545C176.916 190.566 176.822 190.581 176.674 190.555C176.433 190.545 176.199 190.581 175.957 190.57C175.474 190.548 174.984 190.48 174.494 190.411C172.371 190.018 170.305 189.376 168.345 188.478C163.918 186.521 159.82 183.889 155.935 181.081C153.455 179.303 151.001 177.378 148.68 175.385L148.341 175.053C148.01 174.768 147.602 174.927 147.249 175.125L146.982 175.262C146.762 175.392 147.249 175.125 147.076 175.248L146.896 175.323L146.402 175.543C145.468 176.022 144.473 176.415 143.525 176.801C140.321 178.109 136.972 179.103 133.58 179.816C129.071 180.75 124.461 181.027 119.89 180.626C116.333 180.261 111.921 179.645 109.622 176.545C109.009 175.679 108.616 174.684 108.458 173.654C108.443 173.56 108.429 173.466 108.407 173.326C108.4 173.279 108.393 173.232 108.386 173.185C108.364 173.044 108.389 172.897 108.368 172.756C108.346 172.615 108.379 172.515 108.404 172.367C108.512 171.823 107.842 171.83 107.481 171.981C106.987 172.201 106.623 172.641 106.468 173.192Z" fill="#000005"/>
<path d="M114.461 128.458C114.461 128.458 109.156 122.03 111.615 113.69C114.074 105.349 118.612 103.98 125.645 103.858C132.677 103.736 137.679 116.302 134.192 124.513C130.706 132.724 126.788 130.64 126.788 130.64C126.788 130.64 129.228 134.342 127.779 136.147C126.329 137.953 115.934 136.481 113.88 134.351C111.826 132.22 114.461 128.458 114.461 128.458Z" fill="white"/>
<path d="M115.279 127.852C115.041 127.553 114.803 127.254 114.605 126.9C114.483 126.727 114.414 126.594 114.292 126.421C114.23 126.334 114.169 126.248 114.155 126.154C114.155 126.154 114.079 125.974 114.147 126.107C114.216 126.241 114.086 126.021 114.086 126.021C113.82 125.534 113.553 125.048 113.373 124.5C112.176 121.71 111.802 118.649 112.307 115.694C112.808 113.027 113.904 110.172 115.753 108.161C117.206 106.69 119.073 105.732 121.088 105.422C122.253 105.195 123.392 105.116 124.585 105.076C125.576 104.972 126.596 105.055 127.551 105.34L127.706 105.412L128.063 105.549C128.272 105.661 128.481 105.772 128.69 105.884C128.845 105.956 128.961 106.083 129.116 106.155C129.332 106.313 129.555 106.519 129.771 106.677C130.503 107.38 131.148 108.145 131.714 109.017C132.936 111.036 133.71 113.267 134.063 115.563C134.478 117.946 134.33 120.415 133.637 122.775C132.898 125.143 131.546 127.894 129.448 129.223L129.181 129.36C129.315 129.292 129.048 129.429 129.181 129.36L129.048 129.429C128.868 129.504 128.734 129.573 128.547 129.602L128.32 129.685C128.273 129.692 128.039 129.728 128.226 129.699C128.414 129.67 127.992 129.735 127.891 129.703C127.79 129.67 127.649 129.692 127.556 129.706C127.75 129.724 127.657 129.739 127.455 129.674L127.206 129.616C126.957 129.558 127.066 129.638 127.26 129.656C127.213 129.663 127.159 129.623 127.105 129.584C126.006 128.985 125.303 130.34 125.869 131.213C125.937 131.346 126.006 131.479 126.121 131.606C126.251 131.825 125.984 131.339 126.121 131.606L126.258 131.872C126.341 132.099 126.463 132.272 126.546 132.5C126.698 132.86 126.856 133.267 126.968 133.682C127.079 134.096 127.09 134.478 127.061 134.915C127.036 135.062 126.957 135.17 126.885 135.325C126.701 135.69 126.91 135.178 126.805 135.434C126.813 135.48 126.672 135.502 126.632 135.556C126.892 135.372 126.726 135.542 126.632 135.556C126.539 135.571 126.358 135.646 126.178 135.722L125.951 135.805C125.67 135.848 126.092 135.783 125.904 135.812C125.717 135.841 125.529 135.87 125.342 135.898C124.866 135.924 124.437 135.942 123.961 135.967C121.99 135.934 120.036 135.707 118.14 135.231C117.347 135.065 116.54 134.805 115.725 134.499C115.415 134.355 115.058 134.218 114.741 134.027C114.687 133.987 114.471 133.828 114.734 133.98C114.68 133.94 114.626 133.9 114.518 133.821C114.078 133.457 113.898 132.909 114.006 132.365C114.075 131.875 114.197 131.424 114.367 130.966C114.569 130.408 114.864 129.834 115.221 129.348C115.967 128.274 114.234 126.67 113.408 127.852C112.345 129.358 111.476 131.507 111.905 133.359C112.499 135.666 114.748 136.568 116.806 137.163C119.113 137.815 121.47 138.172 123.831 138.241C125.468 138.277 127.868 138.292 128.762 136.62C129.84 134.583 128.612 131.894 127.433 130.157L126.243 131.779C127.173 132.211 128.233 132.24 129.196 131.948C131.676 131.231 133.265 128.78 134.329 126.65C136.99 121.493 136.749 115.246 134.313 110.008C133.235 107.68 131.657 105.524 129.523 104.125C128.611 103.498 127.548 103.134 126.467 102.964C125.151 102.831 123.81 102.845 122.498 103.047C120.04 103.281 117.585 103.85 115.548 105.266C113.252 106.867 111.824 109.436 110.927 112.021C109.636 115.481 109.455 119.298 110.439 122.888C111.019 125.101 112.006 127.156 113.34 128.966C113.401 129.052 113.462 129.139 113.578 129.265C113.945 129.784 114.59 129.925 115.117 129.604C115.639 128.948 115.679 128.27 115.279 127.852Z" fill="#000005"/>
<path d="M119.63 124.641C119.63 124.641 121.111 128.97 126.979 129.075C126.979 129.075 130.685 128.218 132.905 125.814C136.186 122.192 131.292 111.576 131.292 111.576C129.458 108.692 125.99 109.849 125.99 109.849C121.037 111.953 119.407 116.953 119.407 116.953C119.407 116.953 118.765 121.512 119.63 124.641Z" fill="white"/>
<path d="M118.617 125.228C119.01 126.223 119.676 127.128 120.549 127.809C121.374 128.498 122.318 129.024 123.374 129.342C124.431 129.659 125.775 129.98 126.885 129.713C129.434 129.13 131.773 127.811 133.644 125.94C135.043 124.43 135.295 122.329 135.079 120.299C134.842 118.129 134.323 116.003 133.584 114.006C133.278 112.95 132.878 111.908 132.344 110.935C131.224 108.948 128.765 108.559 126.772 109.009C125.849 109.247 124.955 109.672 124.177 110.224C122.951 110.988 121.855 111.972 120.922 113.074C119.862 114.293 119.018 115.669 118.485 117.19C118.369 117.688 118.308 118.225 118.293 118.755C118.174 120.164 118.149 121.559 118.271 122.979C118.293 123.743 118.408 124.493 118.617 125.228C118.758 125.83 120.859 124.836 120.636 124.007C120.041 121.7 120.175 119.137 120.438 116.794C120.456 116.6 120.568 116.39 120.463 116.646C120.496 116.545 120.568 116.39 120.6 116.29C120.842 115.677 121.138 115.104 121.48 114.523C122.021 113.673 122.623 112.909 123.333 112.224C123.704 111.831 124.137 111.525 124.57 111.218C124.789 111.089 125.049 110.905 125.316 110.768C125.402 110.707 125.583 110.631 125.676 110.617C126.116 110.357 125.669 110.57 125.763 110.555C125.856 110.541 126.318 110.422 126.037 110.465C126.365 110.415 126.74 110.357 127.075 110.354C128.034 110.35 128.902 110.696 129.619 111.306C130.405 112.048 130.711 113.104 131.097 114.052C131.792 115.768 132.308 117.56 132.682 119.373C132.996 121.099 133.313 123.161 132.613 124.852C132.253 125.626 131.636 126.297 130.89 126.747C130.018 127.313 129.077 127.746 128.075 128.091C127.848 128.174 127.52 128.225 127.293 128.308C127.112 128.383 127.765 127.947 127.527 128.272C127.487 128.326 126.896 128.225 126.802 128.239C126.46 128.196 126.164 128.145 125.822 128.102C124.633 127.853 123.548 127.348 122.621 126.627C121.749 125.946 121.09 125.088 120.69 124.046C120.448 123.412 118.354 124.453 118.617 125.228Z" fill="#000005"/>
<path d="M121.998 121.639C121.998 121.639 121.429 124.173 123.833 123.899Z" fill="white"/>
<path d="M121.209 121.184C121.159 121.48 121.108 121.776 121.159 122.104C121.202 122.385 121.285 122.612 121.368 122.839C121.436 122.972 121.551 123.098 121.667 123.225C122.052 123.549 122.485 123.866 122.95 124.083C123.422 124.346 123.966 124.454 124.536 124.414C124.629 124.4 124.521 124.321 124.514 124.274C124.399 124.148 124.237 124.029 124.082 123.957C123.873 123.845 123.71 123.726 123.501 123.614C123.393 123.535 123.238 123.463 123.098 123.484C122.863 123.52 122.622 123.51 122.373 123.452L122.326 123.459C122.38 123.499 122.279 123.466 122.326 123.459L122.272 123.419C122.171 123.387 122.272 123.419 122.326 123.459L122.272 123.419L122.373 123.452L122.528 123.524C122.683 123.596 122.845 123.715 123.008 123.834C122.953 123.794 123.17 123.953 123.062 123.874C122.953 123.794 123.17 123.953 123.116 123.913C123.116 123.913 123.108 123.866 123.062 123.874L123.008 123.834C123.069 123.92 122.953 123.794 123.008 123.834C122.953 123.794 122.939 123.701 122.885 123.661C122.817 123.528 122.748 123.394 122.726 123.254L122.734 123.3C122.629 122.933 122.658 122.497 122.741 122.1C122.734 122.053 122.572 121.934 122.564 121.887C122.402 121.769 122.24 121.65 122.031 121.538C121.977 121.498 121.242 121.084 121.209 121.184Z" fill="#000005"/>
<path d="M129.788 117.707C130.87 118.5 132.077 119.178 133.389 119.6C137.671 121.244 137.876 122.891 136.333 123.464C134.791 124.037 128.851 122.216 128.851 122.216" fill="white"/>
<path d="M128.898 118.468C129.986 119.308 131.194 119.985 132.513 120.454C133.475 120.786 134.358 121.226 135.209 121.766C135.425 121.925 135.641 122.084 135.865 122.289C135.926 122.376 136.041 122.502 136.103 122.588C136.164 122.675 136.095 122.542 136.103 122.588C136.11 122.635 136.164 122.675 136.171 122.722C136.178 122.769 136.186 122.815 136.193 122.862C136.268 123.043 136.186 122.815 136.186 122.815C136.193 122.862 136.2 122.909 136.2 122.909C136.2 122.909 136.258 122.66 136.186 122.815C136.113 122.97 136.29 122.56 136.218 122.715C136.146 122.87 136.337 122.552 136.297 122.606C136.55 122.376 136.139 122.823 136.297 122.606C136.384 122.545 136.557 122.423 136.384 122.545C136.337 122.552 136.157 122.628 136.384 122.545C136.611 122.462 136.243 122.567 136.204 122.621C136.243 122.567 136.485 122.578 136.25 122.614L136.11 122.635L135.969 122.657C136.117 122.682 135.782 122.686 135.969 122.657C134.661 122.57 133.385 122.383 132.134 122.047C131.785 121.957 131.435 121.867 131.085 121.777L130.883 121.712L130.938 121.752L130.837 121.719L130.433 121.589C130.184 121.532 129.881 121.434 129.626 121.33C129.081 121.221 128.487 121.409 128.177 121.888C127.978 122.159 127.625 122.98 128.176 123.135C129.038 123.435 129.932 123.633 130.833 123.878C132.192 124.293 133.569 124.513 135.018 124.578C136.358 124.564 137.941 123.937 138.247 122.498C138.586 120.959 136.799 119.939 135.66 119.395C134.521 118.85 133.256 118.421 132.102 117.783C131.738 117.599 131.367 117.369 131.043 117.131L130.772 116.932C130.664 116.853 130.934 117.051 130.826 116.972C130.354 116.709 129.792 116.795 129.421 117.188C129.168 117.419 128.613 118.176 129.053 118.54L128.898 118.468Z" fill="#000005"/>
<path d="M125.164 116.643C125.499 116.64 125.784 116.932 125.748 117.321C125.755 117.368 125.755 117.368 125.762 117.415C125.675 118.099 124.796 117.995 124.695 117.339C124.605 117.065 124.749 116.755 125.07 116.658C125.117 116.65 125.117 116.65 125.164 116.643Z" fill="#000005"/>
<path d="M130.059 116.035C130.394 116.031 130.679 116.323 130.636 116.666C130.643 116.712 130.643 116.712 130.65 116.759C130.563 117.444 129.684 117.34 129.583 116.684C129.493 116.41 129.637 116.1 129.911 116.01C130.012 116.042 130.012 116.042 130.059 116.035Z" fill="#000005"/>
<path d="M116.431 174.97C116.431 174.97 130.841 144.215 129.855 131.559C129.855 131.559 145.34 131.817 155.126 132.135C164.912 132.453 171.076 132.609 171.076 132.609C171.076 132.609 160.649 153.398 159.315 158.448C157.981 163.498 157.011 168.732 157.011 168.732C157.011 168.732 129.303 166.659 116.431 174.97Z" fill="white"/>
<path d="M117.577 174.938C119.315 171.265 120.851 167.527 122.387 163.79C125.275 156.678 127.993 149.401 129.771 141.933C130.586 138.498 131.279 134.89 131.019 131.332L129.675 132.258C134.148 132.338 138.621 132.418 143.094 132.498C150.552 132.647 158.031 132.936 165.496 133.131C167.28 133.193 169.104 133.2 170.888 133.262L170.027 132.339C168.307 135.817 166.588 139.295 164.915 142.766C163.577 145.61 162.232 148.407 160.949 151.29C159.979 153.406 159.063 155.561 158.342 157.735C157.668 159.901 157.21 162.226 156.737 164.457C156.424 165.848 156.157 167.232 155.897 168.663L157.27 167.924C153.875 167.679 150.415 167.635 146.976 167.732C140.045 167.886 133.077 168.43 126.336 170.138C122.645 171.089 118.997 172.321 115.768 174.401C115.375 174.653 115.104 175.078 115.497 175.449C116.023 175.752 116.647 175.752 117.126 175.439C122.674 171.9 129.534 170.653 135.989 169.901C141.742 169.256 147.513 169.041 153.302 169.254C154.462 169.315 155.663 169.323 156.83 169.431C157.267 169.46 158.088 169.19 158.204 168.692C158.871 165.232 159.578 161.718 160.541 158.308C161.183 156.243 161.979 154.249 162.877 152.289C165.181 146.994 167.734 141.757 170.293 136.567C170.91 135.273 171.573 133.972 172.197 132.725C172.532 132.097 171.865 131.816 171.336 131.802C166.044 131.704 160.691 131.519 155.386 131.328C148.638 131.118 141.898 130.955 135.118 130.846L130.115 130.752C129.632 130.73 128.716 131.015 128.77 131.678C128.997 134.713 128.459 137.77 127.767 140.754C126.909 144.531 125.841 148.197 124.579 151.845C122.416 158.365 119.842 164.709 117.066 170.987C116.496 172.274 115.933 173.608 115.317 174.902C115.061 175.421 115.955 175.619 116.29 175.615C116.741 175.738 117.321 175.457 117.577 174.938Z" fill="#CD5357"/>
<path d="M149.938 146.123C149.938 146.123 152.721 137.397 152.887 137.228C153.053 137.059 164.811 136.162 164.955 137.1C165.099 138.037 161.566 146.255 161.566 146.255L149.938 146.123Z" fill="#CD5357"/>
<path d="M150.871 145.644C151.319 144.184 151.82 142.764 152.267 141.305C152.591 140.295 152.916 139.286 153.24 138.277C153.377 137.92 153.468 137.57 153.612 137.261C153.644 137.16 153.677 137.059 153.756 136.951C153.947 136.633 153.835 136.842 153.756 136.951L153.179 137.567C152.92 137.751 152.606 137.895 152.339 138.032C152.339 138.032 152.386 138.025 152.433 138.017L152.667 137.981C152.902 137.945 153.183 137.902 153.424 137.913C154.181 137.845 154.985 137.769 155.749 137.747C157.652 137.647 159.556 137.546 161.473 137.539C162.144 137.532 162.868 137.564 163.553 137.651C163.748 137.669 163.903 137.741 164.104 137.806C164.003 137.774 164.104 137.806 164.158 137.846C164.09 137.712 164.166 137.893 164.133 137.993C163.881 139.471 163.127 141.122 162.539 142.603C161.984 143.984 161.429 145.364 160.827 146.752L162.597 145.473L152.411 145.36L150.922 145.349C150.406 145.428 149.96 145.641 149.635 146.026C149.549 146.087 148.86 146.913 149.289 146.895L159.475 147.008L160.964 147.019C161.714 146.903 162.359 146.421 162.687 145.747C163.603 143.591 164.472 141.443 165.286 139.255C165.488 138.696 165.73 138.084 165.878 137.485C166.022 137.175 166.105 136.779 166.101 136.444C165.961 135.842 164.534 135.917 164.097 135.888C161.3 135.791 158.485 135.888 155.699 136.172C154.942 136.241 154.023 136.19 153.309 136.54C152.156 137.149 151.925 138.143 151.561 139.207C150.735 141.636 149.963 144.105 149.184 146.527C149.022 147.032 149.61 146.798 149.83 146.668C150.19 146.516 150.608 146.116 150.871 145.644Z" fill="#CD5357"/>
<path d="M175.288 111.336C175.288 111.336 159.424 124.519 156.474 132.168L171.123 132.602C171.076 132.609 170.912 119.683 175.288 111.336Z" fill="white"/>
<path d="M174.139 111.033C172.224 112.622 170.418 114.291 168.612 115.96C165.072 119.142 161.77 122.624 158.785 126.296C157.369 128.001 156.175 129.911 155.292 131.966C155.083 132.478 156.507 132.69 156.701 132.708L169.519 133.088L171.35 133.143C171.545 133.161 172.301 133.092 172.298 132.757C172.23 127.635 172.84 122.553 174.141 117.604C174.682 115.506 175.425 113.473 176.377 111.552C176.752 110.871 174.474 110.406 174.139 111.033C172.404 114.417 171.398 118.17 170.821 121.904C170.309 124.813 170.046 127.779 169.97 130.717C169.962 131.293 169.948 131.823 169.941 132.4L170.889 132.014L158.071 131.634L156.24 131.58L157.649 132.323C158.435 130.571 159.43 128.931 160.634 127.403C162.069 125.504 163.666 123.723 165.317 121.982C168.208 118.948 171.269 116.079 174.391 113.297C175.068 112.713 175.699 112.136 176.384 111.599C176.763 111.253 175.84 110.867 175.645 110.849C175.141 110.687 174.571 110.727 174.139 111.033Z" fill="#CD5357"/>
<path d="M135.354 142.993C137.585 142.842 139.77 141.451 140.282 139.166C140.39 138.621 139.525 138.611 139.244 138.654C138.213 138.812 136.955 139.677 137.29 140.921C137.596 141.977 138.908 142.399 139.874 142.442C142.102 142.579 144.539 140.958 144.561 138.604C144.575 138.074 143.897 138.034 143.523 138.092C142.632 138.229 141.846 138.733 141.392 139.523C141.017 140.204 141.093 141.008 141.522 141.613C142.524 143.138 144.708 142.994 146.218 142.522C146.586 142.418 147.292 142.021 147.127 141.567C146.961 141.113 146.117 141.243 145.797 141.34C145.115 141.588 144.376 141.462 143.821 140.972C143.544 140.727 143.4 140.413 143.389 140.031C143.407 139.837 143.432 139.689 143.504 139.534C143.649 139.224 143.724 139.404 143.263 139.523L142.225 139.011C142.239 139.728 141.889 140.885 141.053 141.062C140.631 141.127 140.235 141.044 139.911 140.806C139.702 140.694 139.579 140.521 139.496 140.294C139.435 140.207 139.42 140.114 139.453 140.013C139.489 139.623 139.781 139.962 138.937 140.092L137.899 139.58C137.798 140.171 137.496 140.697 137.031 141.105C136.739 141.389 136.378 141.541 136.003 141.598C135.481 141.631 134.792 141.832 134.529 142.305C134.266 142.777 134.785 143.033 135.214 143.015L135.354 142.993Z" fill="#CD5357"/>
<path d="M135.397 147.016C136.316 147.066 137.192 146.836 137.978 146.331C138.371 146.079 138.634 145.607 138.703 145.117C138.695 144.446 138.274 143.888 137.614 143.653C137.102 143.444 136.493 143.538 136.014 143.851C135.628 144.15 135.412 144.615 135.437 145.091C135.541 146.082 136.24 146.886 137.188 147.124C138.097 147.416 139.142 147.352 139.989 146.934C140.263 146.843 140.469 146.62 140.573 146.364C140.678 146.108 140.627 145.78 140.498 145.56C140.177 145.034 139.517 144.8 138.922 144.987C138.789 145.055 138.703 145.117 138.562 145.138L138.468 145.153C138.375 145.167 138.421 145.16 138.609 145.131C138.562 145.138 138.468 145.153 138.421 145.16L138.14 145.203C138.335 145.221 138.093 145.21 138.047 145.218L137.852 145.2C137.657 145.181 137.852 145.2 137.953 145.232C137.906 145.239 137.805 145.207 137.751 145.167C137.704 145.174 137.65 145.135 137.596 145.095C137.899 145.192 137.751 145.167 137.697 145.127L137.643 145.088L137.751 145.167L137.697 145.127C137.636 145.041 137.643 145.088 137.758 145.214C137.751 145.167 137.675 144.987 137.758 145.214C137.841 145.441 137.758 145.214 137.751 145.167L137.794 145.448C137.787 145.401 137.773 145.308 137.812 145.254L137.755 145.502C137.747 145.455 137.78 145.354 137.819 145.3L137.668 145.564C137.708 145.509 137.7 145.463 137.747 145.455L137.535 145.632C137.582 145.625 137.574 145.578 137.621 145.571L137.441 145.646C137.253 145.675 137.16 145.69 137.3 145.668C137.207 145.682 137.066 145.704 136.965 145.672C136.864 145.639 136.817 145.646 136.918 145.679C136.716 145.614 136.547 145.448 136.425 145.275C136.349 145.095 136.342 145.048 136.356 145.142L136.313 144.861C136.32 144.907 136.327 144.954 136.288 145.008L136.345 144.76C136.352 144.806 136.306 144.814 136.313 144.861L136.464 144.597C136.425 144.651 136.385 144.706 136.345 144.76L136.558 144.583C136.518 144.637 136.432 144.698 136.385 144.706L136.338 144.713C136.252 144.774 136.298 144.767 136.425 144.651C136.284 144.673 136.158 144.788 136.017 144.81C135.743 144.9 136.205 144.781 135.97 144.817L135.783 144.846L135.596 144.875C135.455 144.896 135.502 144.889 135.689 144.86L135.541 144.835C135.012 144.821 134.338 145.116 134.337 145.74C134.352 146.457 134.813 146.962 135.397 147.016Z" fill="#CD5357"/>
<path d="M132.033 156.023C132.985 155.973 133.947 155.681 134.841 155.256C135.602 154.899 136.24 154.369 136.755 153.666C137.152 153.126 136.99 152.383 136.449 151.986C136.287 151.867 136.085 151.803 135.89 151.785C134.863 151.655 133.904 152.282 133.62 153.237C133.19 154.502 133.835 155.89 135.155 156.359C135.256 156.391 135.357 156.423 135.457 156.456C136.989 156.748 138.691 155.959 139.177 154.445C139.333 153.894 138.572 153.627 138.183 153.591C137.606 153.583 137.08 153.904 136.871 154.416C136.506 155.479 137.523 156.474 138.471 156.712C139.876 157.12 141.243 156.334 142.313 155.498C142.699 155.199 142.955 154.68 142.515 154.316C142.036 154.006 141.365 154.013 140.886 154.326C140.587 154.564 140.288 154.802 139.934 155C139.841 155.015 139.473 155.119 139.668 155.137C139.372 155.087 139.127 154.741 139.224 154.438C139.217 154.391 139.264 154.384 139.257 154.337L136.91 154.362C136.878 154.463 136.845 154.564 136.759 154.625C136.593 154.794 136.853 154.611 136.633 154.74C136.413 154.87 136.633 154.74 136.539 154.755C136.445 154.769 136.492 154.762 136.586 154.747L136.492 154.762C136.694 154.827 136.445 154.769 136.492 154.762C136.539 154.755 136.337 154.69 136.492 154.762C136.337 154.69 136.445 154.769 136.283 154.65C135.789 154.246 135.768 153.482 136.179 153.035C136.179 153.035 136.179 153.035 136.226 153.028L135.746 153.342L135.88 153.273L135.278 153.414L135.083 153.396L134.618 153.179C134.881 153.331 134.549 153.046 134.65 153.078C134.571 153.187 134.485 153.248 134.405 153.356C134.2 153.579 133.987 153.756 133.72 153.893C133.327 154.145 132.826 154.318 132.351 154.343C131.828 154.376 131.139 154.577 131.038 155.169C130.937 155.76 131.557 156.048 132.033 156.023Z" fill="#CD5357"/>
<path d="M131.167 163.495L133.784 163.045C134.628 162.915 135.518 162.778 136.196 162.194C136.841 161.711 137.086 160.81 136.776 160.042C136.358 159.195 135.374 158.723 134.437 158.867C133.554 159.051 133.179 159.732 132.966 160.532C132.753 161.332 132.461 162.241 133.366 162.821C134.75 163.712 136.808 163.059 137.619 161.784L135.406 161.116C135.197 161.628 135.183 162.158 135.356 162.659C135.698 163.326 136.379 163.701 137.096 163.687C138.39 163.68 139.62 163.251 140.651 162.469C141.13 162.155 140.874 161.427 140.449 161.157C139.962 160.8 139.292 160.807 138.82 161.167C138.34 161.481 137.8 161.708 137.237 161.794L136.956 161.838L137.522 162.086C137.605 162.313 137.652 162.306 137.576 162.126C137.648 161.971 137.659 161.729 137.724 161.528C137.886 161.023 137.291 160.587 136.888 160.457C136.383 160.295 135.828 160.428 135.511 160.861C135.399 161.07 135.186 161.246 134.959 161.329L134.725 161.365C134.678 161.372 134.491 161.401 134.584 161.387C134.678 161.372 134.631 161.379 134.538 161.394C134.336 161.329 134.444 161.408 134.768 161.646C135.154 161.971 135.06 161.985 135.111 161.69C135.143 161.589 135.176 161.488 135.208 161.387C135.273 161.185 135.291 160.99 135.363 160.835C135.403 160.781 135.514 160.572 135.514 160.572C135.287 160.655 135.046 160.644 134.851 160.626C134.758 160.641 134.703 160.601 134.642 160.514C134.581 160.428 134.581 160.428 134.649 160.561C134.386 161.033 133.871 161.113 133.316 161.246L130.324 161.754C129.855 161.826 129.531 162.212 129.603 162.68C129.617 162.774 129.624 162.821 129.686 162.907C129.96 163.441 130.572 163.682 131.167 163.495Z" fill="#CD5357"/>
<path d="M148.434 155.996L150.449 155.686L151.479 155.528C151.815 155.524 152.135 155.427 152.449 155.283C152.882 154.976 153.044 154.472 152.824 153.978C152.467 153.217 151.591 152.824 150.838 152.604C150.69 152.579 149.944 152.406 149.894 152.702C149.699 153.307 149.652 153.938 149.699 154.554C149.839 155.156 150.207 155.675 150.733 155.978C151.436 156.494 152.33 156.692 153.22 156.555C153.815 156.368 154.341 156.047 154.752 155.6C155.091 155.308 154.403 154.886 154.147 154.782C153.884 154.631 153.581 154.533 153.285 154.483C153.138 154.457 152.795 154.414 152.669 154.529C152.377 154.814 152.078 155.052 151.725 155.25C151.638 155.312 151.497 155.333 151.404 155.348C151.209 155.329 151.357 155.355 151.854 155.47C152.002 155.495 152.11 155.575 152.218 155.654C152.319 155.686 152.28 155.741 152.211 155.607C151.735 155.009 151.981 154.108 152.168 153.455L151.224 153.552C151.076 153.527 150.921 153.455 150.766 153.383L150.712 153.343C150.658 153.304 150.658 153.304 150.719 153.39L150.726 153.437C150.795 153.57 150.777 153.765 150.751 153.913C150.629 154.363 150.146 154.342 149.771 154.399L146.772 154.86C146.257 154.94 146.765 155.437 146.974 155.549C147.313 155.881 147.864 156.036 148.434 155.996Z" fill="#CD5357"/>
<path d="M146.836 162.765C147.961 162.592 148.988 162.098 149.839 161.392C150.304 160.985 150.873 160.322 150.491 159.709C150.416 159.529 149.583 160.04 149.543 160.094C149.323 160.224 149.104 160.354 148.938 160.523C148.765 160.646 148.639 160.761 148.52 160.923C148.231 161.543 148.48 162.225 149.053 162.52C149.788 162.935 150.711 162.697 151.453 162.535C151.681 162.452 151.908 162.369 152.128 162.239C152.394 162.102 152.654 161.919 152.913 161.735C153.047 161.666 153.591 161.151 153.13 161.27C152.481 161.418 151.645 161.594 151.01 161.212C150.491 160.956 150.297 160.314 150.499 159.756L148.52 160.923C148.664 161.237 148.667 161.572 148.476 161.889L148.382 161.904C148.548 161.734 148.729 161.659 148.909 161.583C149.442 161.309 149.568 161.194 149.388 161.269C149.341 161.277 149.341 161.277 149.388 161.269L149.248 161.291C149.06 161.32 148.88 161.396 148.685 161.378C148.224 161.496 147.777 161.709 147.398 162.055C147.179 162.185 147.013 162.354 146.847 162.524C146.807 162.578 146.688 162.74 146.836 162.765Z" fill="#CD5357"/>
<path d="M155.648 140.209L155.976 140.159L156.117 140.137L156.686 140.098C157.068 140.087 157.45 140.076 157.832 140.065C158.596 140.044 159.368 140.069 160.139 140.094C160.395 140.199 160.662 140.062 160.766 139.806C160.838 139.651 160.81 139.464 160.64 139.298C160.32 138.771 159.793 138.469 159.209 138.415C157.566 138.331 155.89 138.349 154.235 138.508C154.048 138.536 153.875 138.659 153.857 138.854C153.846 139.095 153.929 139.322 154.098 139.488C154.513 140 155.078 140.249 155.648 140.209Z" fill="white"/>
<path d="M156.697 139.856C156.116 141.384 155.637 142.945 155.211 144.545C155.153 144.794 156.325 144.614 156.419 144.6C156.7 144.556 156.974 144.466 157.241 144.329C157.374 144.261 157.507 144.192 157.533 144.045C157.918 142.498 158.412 141.031 158.953 139.557C159.09 139.2 158.2 139.337 158.059 139.359C157.778 139.402 157.45 139.453 157.183 139.59C157.09 139.604 156.769 139.701 156.697 139.856Z" fill="white"/>
<path d="M120.026 158.732C128.32 160.575 128.076 154.617 128.076 154.617C128.076 154.617 130.581 154.376 132.956 153.914C135.332 153.453 133.454 152.159 133.454 152.159C138.81 152.055 134.838 149.932 134.838 149.932C139.841 148.779 128.826 146.395 128.826 146.395C128.826 146.395 130.402 145.721 132.125 145.073C133.848 144.424 135.142 143.793 134.637 143.008C134.133 142.222 130.521 142.441 126.577 144.247C122.634 146.052 117.933 152.291 117.933 152.291C117.933 152.291 118.386 158.361 120.026 158.732Z" fill="white"/>
<path d="M119.237 159.525C121.771 160.095 124.42 160.167 126.63 158.628C127.888 157.763 128.739 156.433 129.038 154.948C129.088 154.653 129.132 154.31 129.128 153.975L127.715 155.392C128.472 155.323 129.222 155.208 130.018 155.086C131.283 154.891 132.765 154.855 133.864 154.206C134.571 153.81 135.501 152.996 135.076 152.102C134.878 151.748 134.64 151.449 134.276 151.265L132.805 152.93C133.857 152.912 135.05 152.873 136.024 152.34C136.644 152.004 137.448 151.305 137.231 150.523C137.076 149.827 136.233 149.333 135.66 149.038L134.423 150.667C135.393 150.422 136.849 149.91 137.113 148.815C137.253 148.169 136.72 147.82 136.194 147.517C134.669 146.648 132.834 146.258 131.133 145.801C130.636 145.685 130.138 145.57 129.641 145.454L128.639 147.047C130.081 146.442 131.631 145.916 133.072 145.311C133.934 144.986 134.713 144.435 135.329 143.764C135.693 143.325 135.927 142.665 135.466 142.16C134.72 141.364 132.947 141.684 132.056 141.821C130.041 142.131 128.077 142.769 126.249 143.673C123.535 145.05 121.3 147.36 119.299 149.634C118.65 150.406 117.955 151.184 117.352 151.948C117.1 152.179 116.956 152.489 116.959 152.824C116.988 153.011 116.97 153.206 116.999 153.394C117.085 154.579 117.305 155.697 117.579 156.854C117.856 157.723 118.235 159.247 119.237 159.525C119.821 159.579 120.315 159.359 120.686 158.967C120.852 158.797 121.407 158.04 120.909 157.925C119.861 157.654 119.59 155.585 119.407 154.702C119.209 153.725 119.057 152.741 119 151.743L118.758 152.356C120.265 150.301 121.988 148.406 123.935 146.715C125.463 145.425 127.237 144.481 129.176 143.991C130.139 143.699 131.123 143.548 132.121 143.49C132.456 143.487 132.791 143.483 133.141 143.573C133.289 143.598 133.444 143.671 133.559 143.797C133.66 143.829 133.656 144.117 133.739 143.721L133.779 143.667C133.779 143.667 133.379 143.872 133.339 143.926C132.759 144.208 132.117 144.402 131.53 144.636C130.621 144.968 129.72 145.346 128.866 145.717C128.459 145.876 128.073 146.175 127.842 146.546C127.77 146.701 127.514 147.22 127.856 147.264C128.898 147.487 129.9 147.765 130.949 148.035C131.749 148.248 132.51 148.515 133.27 148.782C133.829 148.984 134.348 149.24 134.827 149.55C134.881 149.589 134.889 149.636 134.943 149.676C134.997 149.715 135.051 149.755 134.989 149.669C135.044 149.708 134.971 149.863 134.997 149.715C135.029 149.614 135.054 149.467 135.141 149.405C135.22 149.297 135.346 149.182 135.519 149.059C135.566 149.052 135.747 148.977 135.653 148.991L135.379 149.081C135.559 149.005 135.191 149.11 135.145 149.117C134.777 149.222 133.072 150.299 133.908 150.746C134.319 150.923 134.65 151.208 134.942 151.546C134.996 151.586 135.011 151.68 135.065 151.72C135.126 151.806 135.126 151.806 135.119 151.759C135.187 151.893 135.079 151.813 135.126 151.806C135.213 151.745 135.436 151.327 135.656 151.197C135.696 151.143 135.869 151.02 135.836 151.121C135.804 151.222 135.656 151.197 135.743 151.136C135.743 151.136 135.462 151.179 135.368 151.193C134.899 151.265 134.423 151.291 133.994 151.308C133.472 151.341 131.713 152.379 132.524 152.974C132.578 153.013 132.632 153.053 132.47 152.934C132.524 152.974 132.578 153.013 132.632 153.053C132.747 153.179 132.855 153.258 132.924 153.392C132.985 153.478 132.992 153.525 132.999 153.572C133.115 153.698 132.891 153.493 133.039 153.518C133.144 153.262 133.356 153.085 133.623 152.948C133.576 152.956 133.49 153.017 133.443 153.024C133.208 153.06 132.927 153.103 132.7 153.186C131.255 153.456 129.842 153.626 128.382 153.802C127.766 153.849 126.915 154.555 126.969 155.219C126.983 155.312 126.944 155.366 126.958 155.46C126.962 155.172 126.965 155.507 126.926 155.561C126.886 155.615 126.908 155.756 126.875 155.857C126.843 155.957 126.817 156.105 126.785 156.206C126.752 156.307 126.623 156.711 126.688 156.509C126.615 156.664 126.543 156.819 126.464 156.927L126.54 157.107C126.468 157.262 126.666 156.992 126.46 157.215L126.302 157.432C126.255 157.439 126.428 157.316 126.262 157.486C126.222 157.54 125.923 157.778 126.176 157.547L125.963 157.724C125.79 157.846 126.143 157.648 125.83 157.792L125.649 157.868L125.696 157.86C125.516 157.936 125.289 158.019 125.109 158.095C123.67 158.412 122.221 158.347 120.823 157.986C120.286 157.925 119.745 158.152 119.421 158.537C119.287 158.606 118.693 159.417 119.237 159.525Z" fill="#000005"/>
<path d="M128.945 149.974C131.154 150.306 133.364 150.638 135.544 150.782C135.833 150.786 135.242 150.061 135.18 149.975C134.997 149.715 134.773 149.51 134.55 149.304C134.434 149.178 134.265 149.012 134.07 148.994C131.843 148.857 129.633 148.525 127.471 148.186C127.175 148.136 127.781 148.954 127.835 148.994C128.018 149.253 128.242 149.459 128.465 149.664C128.573 149.744 128.75 149.956 128.945 149.974Z" fill="#000005"/>
<path d="M127.402 152.418C129.28 152.465 131.118 152.566 132.971 152.761C133.555 152.815 134.095 152.588 134.514 152.188C134.831 151.756 134.272 151.554 133.93 151.51C132.077 151.316 130.199 151.269 128.361 151.167C127.777 151.113 127.236 151.34 126.818 151.74C126.508 152.22 127.067 152.422 127.402 152.418Z" fill="#000005"/>
<path d="M114.15 134.549C104.803 137.713 90.1649 176.034 101.04 176.569C111.914 177.103 122.358 159.861 122.358 159.861L117.948 150.514L108.975 157.361" fill="#000005"/>
<path d="M113.39 133.659C111.252 134.419 109.583 136.354 108.22 138.099C106.23 140.755 104.504 143.563 103.047 146.569C101.399 149.892 100.008 153.32 98.8646 156.805C97.7721 159.995 97.022 163.228 96.5747 166.559C96.3041 168.855 96.1776 171.464 97.1794 173.613C97.756 174.867 98.6462 175.977 99.7743 176.763C100.672 177.297 101.721 177.567 102.752 177.409C106.799 177.218 110.462 174.832 113.425 172.266C116.294 169.715 118.832 166.878 121.039 163.757C121.673 162.892 122.261 162.034 122.841 161.13C122.92 161.021 123.086 160.852 123.112 160.704C123.137 160.556 122.885 160.163 122.809 159.983L118.975 151.891L118.625 151.177C118.542 150.95 117.338 149.36 117.126 149.537L109.318 155.534L108.153 156.384C108.027 156.5 109.462 158.342 109.674 158.165L117.529 152.161L118.647 151.318L117.147 149.677L120.989 157.817L121.551 158.977L121.522 158.79C119.15 162.704 116.198 166.276 112.892 169.422C110.423 171.769 107.535 173.891 104.248 174.972C102.838 175.477 101.378 175.653 99.915 175.494C99.4248 175.426 98.9671 175.256 98.5418 174.986C98.4877 174.946 98.4336 174.907 98.3796 174.867L98.4877 174.946C98.7184 175.199 98.2426 174.6 98.6571 175.112C98.7184 175.199 98.8337 175.325 98.895 175.411C98.7724 175.238 98.9562 175.498 98.8878 175.365C98.8193 175.231 98.895 175.411 98.8193 175.231C98.758 175.145 98.7436 175.051 98.6823 174.964C98.531 174.604 98.3796 174.243 98.322 173.869C98.0842 172.946 97.987 172.001 97.9835 171.043C98.0307 168.541 98.3265 166.097 98.9576 163.65C100.357 157.775 102.509 152.12 105.289 146.8C106.551 144.399 107.968 142.071 109.601 139.901C110.798 138.326 112.182 136.722 113.948 135.731C114.255 135.54 114.615 135.389 114.983 135.284C115.076 135.27 114.363 134.372 114.302 134.286C114.161 134.308 113.617 133.576 113.39 133.659Z" fill="#000005"/>
<path d="M147.406 123.729L146.902 120.448C146.819 120.221 146.643 120.009 146.434 119.897C146.178 119.792 145.835 119.749 145.561 119.839C145.053 119.965 144.494 120.387 144.588 120.996L145.092 124.276C145.175 124.503 145.352 124.716 145.561 124.828C145.817 124.932 146.159 124.976 146.433 124.885C146.988 124.752 147.5 124.338 147.406 123.729Z" fill="#000005"/>
<path d="M153.224 122.882L157.11 117.584C157.269 117.368 156.079 117.119 155.978 117.087C155.683 117.036 155.441 117.025 155.153 117.022C155.005 116.996 154.872 117.065 154.785 117.126L150.899 122.424C150.74 122.641 151.93 122.889 152.031 122.922C152.326 122.972 152.568 122.983 152.856 122.987C153.004 123.012 153.137 122.944 153.224 122.882Z" fill="#000005"/>
</svg>
