<svg width="182" height="154" viewBox="0 0 182 154" fill="none" xmlns="http://www.w3.org/2000/svg">
<g clip-path="url(#clip0_212_2284)">
<path d="M34.1097 125.235C31.7009 127.326 29.2474 129.392 26.7938 131.458C28.9625 133.16 31.1105 134.815 33.2781 136.54C34.8272 133.7 36.3066 130.879 37.8088 128.06C36.5675 127.133 35.3511 126.162 34.1087 125.258L34.1097 125.235Z" fill="#ECBCBE"/>
<path d="M42.4028 130.857C40.8361 133.582 39.2247 136.282 37.5893 139.003C40.0146 140.098 42.4628 141.194 44.8881 142.289C45.7946 138.962 46.725 135.612 47.8571 132.364C46.0723 131.802 44.2375 131.33 42.4028 130.857Z" fill="#ECBCBE"/>
<path d="M65.8106 137.689C66.4529 141.224 67.0255 144.779 67.5743 148.355C72.2247 148.382 76.8398 148.178 81.4599 147.86C80.2834 144.484 79.1059 141.131 77.9522 137.757C73.8964 137.757 69.8634 137.758 65.8116 137.666L65.8106 137.689Z" fill="#ECBCBE"/>
<path d="M52.4115 134.517C51.8044 137.813 51.1057 141.104 50.4508 144.442C54.3915 145.468 58.3323 146.494 62.2751 147.474C61.7284 143.852 61.1121 140.25 60.4958 136.647C57.8014 135.93 55.1299 135.213 52.4115 134.517Z" fill="#ECBCBE"/>
<path d="M83.5369 136.886C84.7352 140.286 85.9326 143.708 87.107 147.13C90.7594 146.424 94.3899 145.694 98.0215 144.942C96.793 141.701 95.5407 138.483 93.961 135.409C90.4995 134.932 86.9939 136.447 83.5369 136.886Z" fill="#ECBCBE"/>
<path d="M91.9336 65.1537C92.1746 64.3855 92.6565 62.8491 92.8964 62.1037C90.5302 60.7136 88.1381 59.3911 85.6453 58.2702C83.9864 62.5261 84.4253 67.0142 86.1155 71.1923C88.7357 70.5087 91.3289 69.9155 93.9481 69.2547C93.4437 68.2466 92.436 66.2075 91.9336 65.1537Z" fill="#ECBCBE"/>
<path d="M112.112 57.7473C111.261 60.871 110.407 64.0405 109.532 67.186C111.172 68.9329 112.787 70.7016 114.379 72.4921C116.885 70.795 119.389 69.1209 121.914 67.5163C119.029 63.903 115.668 60.7035 112.112 57.7473Z" fill="#ECBCBE"/>
<path d="M111.057 93.79C110.952 91.0355 110.847 88.281 110.718 85.5713C108.68 84.5168 106.644 83.4395 104.582 82.4068C103.318 84.5266 102.029 86.6682 100.741 88.8097C104.146 90.5447 107.575 92.2349 111.057 93.79Z" fill="#ECBCBE"/>
<path d="M98.558 133.578C100.132 136.788 101.659 139.996 103.186 143.228C108.312 141.351 113.313 139.194 118.15 136.617C116.036 133.703 113.757 130.896 111.309 128.265C107.144 130.185 102.849 131.916 98.558 133.578Z" fill="#ECBCBE"/>
<path d="M120.367 82.4783C123.475 81.6563 126.624 80.9279 129.714 79.9905C128.012 77.0951 126.333 74.1779 124.607 71.3043C122.015 72.8829 119.445 74.4854 116.874 76.1107C118.04 78.2028 119.204 80.3177 120.368 82.4555L120.367 82.4783Z" fill="#ECBCBE"/>
<path d="M95.9274 73.1251C93.5088 73.9095 91.0664 74.7157 88.6239 75.5219C90.7691 78.7581 93.1732 81.8456 95.8172 84.6919C97.3904 82.8382 99.0093 80.9865 100.603 79.1795C99.0447 77.1614 97.4871 75.1204 95.9274 73.1251Z" fill="#ECBCBE"/>
<path d="M130.667 84.25C127.486 85.1832 123.934 85.6873 121.703 88.4049C120.315 88.2047 117.537 87.8042 116.147 87.6269C116.065 89.4563 115.829 93.1578 115.723 94.9862C118.506 95.2723 121.311 95.5595 124.096 95.7999C124.29 97.5959 124.461 99.391 124.631 101.209C127.946 101.359 131.258 101.6 134.57 101.841C134.328 99.5848 134.086 97.3282 133.845 95.0717C135.007 94.7117 137.331 93.9918 138.493 93.6318C136.955 89.6211 133.297 87.4164 130.691 84.2281L130.667 84.25Z" fill="#ECBCBE"/>
<path d="M104.606 63.114C105.401 60.2169 106.196 57.3427 106.991 54.4456C101.551 52.6187 95.4696 52.321 90.3408 55.2743C94.5816 58.7886 99.238 61.7258 104.607 63.0912L104.606 63.114Z" fill="#ECBCBE"/>
<path d="M158.377 85.1352C161.391 82.3154 164.361 79.4707 167.265 76.5772C165.492 75.2368 163.699 73.8496 161.924 72.555C159.218 75.1366 156.467 77.6933 153.694 80.249C155.248 81.8545 156.824 83.4839 158.378 85.1123L158.377 85.1352Z" fill="#ECBCBE"/>
<path d="M169.92 72.0686C172.633 68.3186 174.81 64.2694 176.469 59.9907C174.509 59.2605 172.523 58.575 170.561 57.8905C169.078 61.2836 167.28 64.5708 165.104 67.5889C166.711 69.0592 168.317 70.5296 169.92 72.0686Z" fill="#ECBCBE"/>
<path d="M123.549 132.759C126.264 129.972 128.873 126.996 131.302 123.967C127.9 122.667 124.474 121.412 121.07 120.159C119.391 121.824 117.689 123.489 115.964 125.153C118.508 127.673 121.028 130.216 123.549 132.759Z" fill="#ECBCBE"/>
<path d="M172.451 30.7535C173.873 30.7261 176.696 30.6245 178.118 30.597C176.71 24.2319 174.512 18.1061 171.589 12.3142C170.454 10.0402 169.064 7.34219 166.091 7.20788C167.283 15.3047 171.306 22.6358 172.451 30.7535Z" fill="#ECBCBE"/>
<path d="M172.538 53.1679C174.576 53.7182 176.637 54.2467 178.698 54.7981C179.803 49.0965 179.927 43.3048 179.339 37.5496C177.83 37.4814 174.832 37.3918 173.369 37.3257C173.863 42.6183 173.691 47.9496 172.562 53.1461L172.538 53.1679Z" fill="#ECBCBE"/>
<path d="M133.555 118.225C134.624 114.332 134.899 110.266 134.897 106.256C131.564 105.991 128.228 105.771 124.914 105.576C124.737 108.478 124.561 111.38 124.337 114.303C127.418 115.588 130.499 116.873 133.555 118.225Z" fill="#ECBCBE"/>
<path d="M3.56252 135.427C20.5214 125.744 34.8983 112.347 48.9769 98.9594C34.2964 93.2091 7.51225 81.4812 4.25524 83.5797C0.526403 85.9776 3.22104 118.134 3.58539 135.428L3.56252 135.427ZM36.7591 101.593C37.5128 102.154 8.87435 121.322 8.87435 121.322C7.92279 119.561 7.07664 92.6438 8.96069 91.0103C10.8219 89.3758 36.0063 101.009 36.7601 101.57L36.7591 101.593Z" fill="#ECBCBE"/>
<path d="M141.235 86.1939C142.355 88.2839 143.452 90.3728 144.549 92.4618C146.841 91.4425 149.155 90.4243 151.447 89.405C150.09 87.4876 148.732 85.5931 147.396 83.7225C145.343 84.5234 143.289 85.3472 141.235 86.1939Z" fill="#ECBCBE"/>
</g>
<defs>
<clipPath id="clip0_212_2284">
<rect width="145.45" height="175.003" fill="white" transform="translate(0 145.302) rotate(-87.413)"/>
</clipPath>
</defs>
</svg>
