<svg width="65" height="66" viewBox="0 0 65 66" fill="none" xmlns="http://www.w3.org/2000/svg">
<path d="M20.4016 20.524L20.1279 20.5324C20.1897 20.5308 20.2514 20.5279 20.3132 20.525C20.3441 20.5233 20.3736 20.5227 20.4019 20.5237L20.4016 20.524Z" fill="#C1282D"/>
<path d="M20.4878 31.9408C20.4472 31.943 20.4036 31.943 20.3584 31.9408C20.351 31.9401 20.3432 31.9401 20.3357 31.9395L20.4878 31.9408Z" fill="#C1282D"/>
<path d="M27.7866 31.9356C27.7642 31.9363 27.7414 31.9363 27.718 31.9356C27.6312 31.9333 27.5448 31.9317 27.458 31.9304L27.7866 31.9356Z" fill="#C1282D"/>
<path d="M21.8495 34.1798C21.7072 34.7502 21.5951 35.226 21.4693 35.6969C20.6552 38.7386 19.8274 41.7763 19.0324 44.8226C18.9112 45.288 18.7279 45.4612 18.2349 45.441C17.23 45.4004 16.2222 45.429 15.135 45.429C15.6375 43.5105 16.1172 41.6808 16.5985 39.8452C15.3791 41.1679 14.1646 42.4861 12.873 43.8872C12.393 42.6382 11.9383 41.4559 11.4856 40.2768L11.3065 39.7903L11.1847 40.3207L11.184 40.3246C11.1307 40.4965 11.0784 40.6687 11.0313 40.8426C10.6578 42.2294 10.2938 43.6191 9.90871 45.0029C9.86581 45.1567 9.71533 45.3975 9.60971 45.3998C8.48521 45.429 7.35973 45.418 6.16113 45.418C6.43153 44.3861 6.67691 43.4286 6.93301 42.4741C7.61096 39.9498 8.29801 37.4278 8.96816 34.901L9.06761 34.5415C9.15893 34.2773 9.30778 34.1642 9.63116 34.1717C10.5382 34.1941 11.4473 34.2019 12.354 34.1694C12.6884 34.158 12.8708 34.2672 12.9907 34.4934L13.1815 35.0336C13.445 35.8552 13.7255 36.6712 14.0024 37.4883C14.0612 37.6631 14.1435 37.8295 14.267 38.125C15.0398 37.2458 15.7915 36.4714 16.4552 35.6452L17.6115 34.1372L18.5612 34.147L19.077 34.1522C19.1017 34.1538 19.126 34.1567 19.1514 34.1596C20.0078 34.2584 20.8853 34.1798 21.8495 34.1798Z" fill="#C1282D"/>
<path d="M9.03619 34.6445C9.04594 34.6078 9.05634 34.5737 9.06771 34.5415L8.96826 34.901C8.99101 34.8152 9.01344 34.73 9.03619 34.6442V34.6445Z" fill="#C1282D"/>
<path d="M13.1817 35.0338L12.991 34.4937C13.0254 34.5577 13.0543 34.6308 13.08 34.713C13.1138 34.82 13.1476 34.9269 13.1817 35.0338Z" fill="#C1282D"/>
<path d="M19.0768 34.1525L18.561 34.1473C18.7235 34.1336 18.8942 34.1346 19.0768 34.1525Z" fill="#C1282D"/>
<path d="M21.3991 39.9566C21.4998 37.9257 22.6266 35.9321 24.899 34.7355C27.0979 33.5775 29.3648 33.5993 31.4942 34.9662C33.3051 36.1287 34.0146 38.3514 33.4241 40.6521C32.4247 44.5475 28.188 46.7234 24.5428 45.2138C22.4966 44.3665 21.3903 42.7058 21.3987 39.9566H21.3991ZM29.8552 39.6885C29.8842 38.0677 29.0076 37.2077 27.6199 37.2581C26.3716 37.3033 25.3881 38.3433 25.1808 39.8679C25.0602 40.7551 25.2506 41.5504 26.0596 42.0561C26.8815 42.5696 27.7346 42.5215 28.5205 41.9839C29.3957 41.3856 29.811 40.5097 29.8552 39.6888V39.6885Z" fill="#C1282D"/>
<path d="M55.6261 34.1727L55.5569 34.3995H55.5562C55.4207 34.9306 55.2926 35.4428 55.1568 35.9521C55.1152 36.1081 55.0785 36.2452 55.0437 36.3658L55.0122 36.4727L54.7824 37.2501H53.4655C52.1811 37.2508 50.8967 37.2488 49.6116 37.2524C49.4241 37.253 49.2697 37.266 49.1453 37.2985L48.6886 38.4172H54.0879C53.8513 39.2804 53.6546 40.0617 53.4115 40.8248L52.4466 41.1059C51.2022 41.1166 49.9578 41.1118 48.7133 41.1118C48.3542 41.1118 48.1098 41.1329 47.9428 41.2187L47.5882 42.378H53.4967C53.2315 43.376 53.0011 44.2678 52.7495 45.1499L52.2094 45.419L52.2321 45.4196C49.3367 45.4265 46.4409 45.4248 43.5455 45.4219L43.5725 45.4424H42.9534L43.0918 45.069L43.0925 45.0677C43.2754 44.379 43.4548 43.6984 43.6372 43.0202C44.3661 40.3113 45.0984 37.604 45.8195 34.8932L45.8202 34.8919L45.9499 34.4499L46.0321 34.1714L46.3883 34.172H46.6623C49.4222 34.1834 52.1821 34.1802 54.942 34.1811H54.9533L55.6267 34.1714L55.6261 34.1727Z" fill="#C1282D"/>
<path d="M45.9493 34.4507L45.8196 34.8927C45.842 34.8082 45.8648 34.723 45.8872 34.6382C45.906 34.5683 45.9255 34.5056 45.9496 34.4507H45.9493Z" fill="#C1282D"/>
<path d="M46.5562 34.173H46.4009C46.409 34.1724 46.4168 34.1724 46.4249 34.1724C46.4688 34.1724 46.5124 34.173 46.5566 34.173H46.5562Z" fill="#C1282D"/>
<path d="M52.7489 45.1501L52.7473 45.1553C52.7388 45.1862 52.73 45.2177 52.7209 45.2486C52.7193 45.2548 52.7164 45.2616 52.7125 45.2681C52.668 45.3451 52.5003 45.4189 52.3963 45.4196C52.3413 45.4196 52.2864 45.4196 52.2315 45.4202L52.2087 45.4196L52.7489 45.1505V45.1501Z" fill="#C1282D"/>
<path d="M53.4109 40.825C53.4018 40.8536 53.3927 40.8822 53.3836 40.9108C53.3534 41.0027 53.1405 41.0736 52.9692 41.0953C52.9361 41.0999 52.9039 41.1022 52.8756 41.1022C52.7417 41.1038 52.6088 41.1051 52.4749 41.1061H52.4463L53.4112 40.825H53.4109Z" fill="#C1282D"/>
<path d="M16.3175 20.5518L15.6516 21.1959L15.6464 21.2011C14.686 22.181 13.7201 23.1664 12.7139 24.1924C12.7139 24.1924 9.97058 23.5281 9.00468 26.0634C9.00175 26.0696 8.99948 26.0755 8.9972 26.0816C8.97543 26.1366 8.95593 26.1918 8.93838 26.2487C8.93025 26.2727 8.92245 26.2978 8.91563 26.3225C8.75605 26.8386 8.66538 27.4713 8.6722 28.2478V28.2656C7.8701 28.0628 7.03843 27.8821 6.3777 27.3127C5.1401 26.2467 4.65878 24.5844 5.19373 23.0861C5.7407 21.5518 7.1694 20.5521 8.8152 20.5521C10.9716 20.5521 13.1276 20.5534 15.2834 20.5534L15.2827 20.5521H16.3178L16.3175 20.5518Z" fill="#C1282D"/>
<path d="M16.2948 28.3759C16.0417 30.4978 14.4976 31.9193 12.4169 31.9262C10.1397 31.9343 7.86272 31.9275 5.58577 31.9275H4.97412C6.27217 30.6304 7.4854 29.4516 8.67197 28.2657C8.67197 28.2657 12.1631 29.0762 12.6649 25.5253C12.6678 25.5042 12.6711 25.4837 12.6734 25.4626C12.6786 25.4258 12.6831 25.3894 12.6864 25.3527C12.6864 25.3511 12.687 25.3488 12.687 25.3465C12.7247 25.0017 12.7358 24.6189 12.714 24.1931C12.961 24.2623 13.1183 24.3108 13.2775 24.3498C15.1924 24.8145 16.5097 26.5718 16.2945 28.3765L16.2948 28.3759Z" fill="#C1282D"/>
<path d="M60.0258 22.0033C59.3043 22.8642 58.6163 23.6858 58.0199 24.3979C57.055 24.028 56.1821 23.663 55.2867 23.3673C54.9773 23.2649 54.6032 23.2873 54.2746 23.3445C54.0998 23.3751 53.8781 23.5792 53.8317 23.7475C53.8005 23.8603 54.0088 24.1073 54.1651 24.1895C54.5268 24.3797 54.9233 24.5028 55.3033 24.6595C55.8411 24.8815 56.3904 25.0813 56.9107 25.3391C58.9868 26.3677 59.3885 28.8422 57.7729 30.5335C56.8577 31.4916 55.6933 31.9122 54.4202 32.0142C52.2645 32.1865 50.2788 31.6915 48.5228 30.371C48.1581 30.0967 48.1208 29.9099 48.4367 29.5689C48.9596 29.0044 49.4481 28.4064 49.9252 27.8022C50.1458 27.5227 50.3174 27.5055 50.5966 27.7233C51.5186 28.4425 52.5531 28.9193 53.7293 29.0259C53.9942 29.0499 54.2824 29.0213 54.5337 28.9375C54.9519 28.7977 54.9971 28.3531 54.6201 28.1123C54.3487 27.9391 54.0413 27.8185 53.7423 27.6924C53.0803 27.4129 52.4078 27.1581 51.7497 26.8698C49.3938 25.837 49.6044 23.3949 50.7884 21.9964C51.6204 21.014 52.7276 20.519 53.9626 20.3753C55.9559 20.1433 57.8565 20.4585 59.551 21.624C59.7012 21.7273 59.8367 21.8515 60.0265 22.0039L60.0258 22.0033Z" fill="#C1282D"/>
<path d="M49.4563 22.0451C48.7634 22.867 48.0819 23.6753 47.3659 24.5249C47.1647 24.3923 46.9879 24.2691 46.805 24.1563C45.9596 23.6357 45.0558 23.2713 44.0496 23.3133C43.7873 23.3243 43.3915 23.4875 43.3076 23.686C43.1516 24.0569 43.554 24.1856 43.8335 24.299C44.5153 24.5756 45.2131 24.8148 45.8881 25.1069C46.7136 25.4638 47.4923 25.9038 47.9226 26.7501C48.6867 28.2533 47.9688 30.2621 46.3292 31.2533C45.1663 31.9563 43.8845 32.1022 42.5676 32.0317C40.6992 31.9316 39.0391 31.2888 37.5759 30.0339C37.6588 29.9085 37.7206 29.7934 37.8028 29.6953C38.3075 29.0908 38.846 28.5116 39.3137 27.8805C39.5909 27.5064 39.7931 27.5051 40.1353 27.7745C41.0417 28.4889 42.0694 28.9289 43.2303 29.0271C43.3154 29.0342 43.4038 29.0635 43.4848 29.0492C43.8127 28.9913 44.2267 29.0245 44.3096 28.589C44.3892 28.1704 44.0252 28.0466 43.7275 27.9208C42.9238 27.5808 42.1045 27.2763 41.3105 26.9159C39.2188 25.9662 38.744 23.699 40.2637 21.9619C41.0934 21.0132 42.1822 20.5157 43.4009 20.3759C45.4117 20.1452 47.3259 20.4617 49.0328 21.6411C49.1313 21.7091 49.2278 21.7806 49.3195 21.8569C49.3572 21.8881 49.3796 21.9375 49.4563 22.0451Z" fill="#C1282D"/>
<path d="M45.1146 34.2142L44.2859 37.1789C44.255 37.2559 44.0698 37.3131 43.9121 37.3339H40.9683L40.8786 37.6238C40.8581 37.6706 40.8396 37.7246 40.8237 37.785C40.8133 37.8234 40.8035 37.862 40.7934 37.9004C40.2445 39.9788 39.6696 42.0506 39.1301 44.1306L39.1294 44.1323L38.834 45.4254L38.3241 45.4368L38.0446 45.443C37.0758 45.3881 36.1011 45.428 35.0361 45.428C35.7605 42.7231 36.4644 40.0912 37.195 37.3612H33.8784C34.0487 36.6969 34.1969 36.0801 34.3604 35.4743L34.6438 34.5483L34.7592 34.1726L37.809 34.1847H37.8096C40.2448 34.1785 42.6651 34.1431 45.1153 34.2142H45.1146Z" fill="#C1282D"/>
<path d="M34.6433 34.5479L34.3599 35.4738C34.3855 35.3795 34.4109 35.2863 34.4369 35.1927C34.5181 34.9021 34.5763 34.6954 34.6433 34.5479Z" fill="#C1282D"/>
<path d="M38.3237 45.4365C38.2415 45.4469 38.1488 45.4485 38.0442 45.4427L38.3237 45.4365Z" fill="#C1282D"/>
<path d="M45.1146 34.2141C44.8338 35.2444 44.5823 36.2155 44.2882 37.1736C44.2875 37.1752 44.2869 37.1771 44.2859 37.1788L45.1146 34.2141Z" fill="#C1282D"/>
<path d="M36.4573 31.0176C36.4371 31.0936 36.4173 31.1703 36.3978 31.2464C36.3738 31.339 36.3465 31.419 36.3149 31.4866L36.4573 31.0179V31.0176Z" fill="#C1282D"/>
<path d="M20.336 31.9394L17.6794 31.9287C18.6076 31.9287 19.4731 31.9008 20.336 31.9394Z" fill="#C1282D"/>
<path d="M21.6061 30.8391L20.9532 31.9425L20.4878 31.9409C20.8531 31.922 21.0601 31.7374 21.2509 31.4218C21.3685 31.2275 21.4868 31.0331 21.6058 30.8394L21.6061 30.8391Z" fill="#C1282D"/>
<path d="M34.923 20.5404C34.635 21.051 34.4033 21.4784 34.156 21.897C32.3525 24.9422 30.5426 27.982 28.7483 31.0318L28.2286 31.9424L27.7866 31.9356L27.458 31.9304L27.343 31.9288C26.5627 31.9174 25.7771 31.9281 24.9568 31.9281C24.7973 30.1133 24.6426 28.3421 24.4869 26.5724C24.4853 26.5474 24.483 26.5221 24.4807 26.497H24.4801L24.4664 26.2845L24.3618 26.4532C24.223 26.6521 24.0738 26.8441 23.9461 27.0499C23.1635 28.3115 22.3793 29.5719 21.6058 30.8394C21.4868 31.0331 21.3685 31.2274 21.2509 31.4218C21.0601 31.7373 20.8531 31.9219 20.4878 31.9408L20.3357 31.9395C19.4731 31.9005 18.6076 31.9288 17.6791 31.9288L17.0983 21.9737L17.0142 20.5326C17.4519 20.5326 17.8546 20.5326 18.2576 20.5333C18.8806 20.5333 19.5056 20.5544 20.1273 20.5326L20.401 20.5242L20.9086 20.5076L20.8937 21.6087V21.61C20.9194 22.8379 20.9584 24.0657 20.9938 25.2936C20.9974 25.4245 21.0074 25.6618 21.0081 25.9491C21.2538 25.5877 21.4722 25.2585 21.622 25.0098C22.3159 23.8567 22.9984 22.6965 23.7001 21.5479L24.3179 20.4917H27.5653L27.6521 21.9032L27.643 21.9025C27.695 22.9337 27.7431 23.9656 27.8711 24.99C27.9088 25.2906 27.9426 25.485 28.0076 25.7681C28.3261 25.2078 28.7181 24.6081 29.0353 24.0469C29.603 23.0436 30.165 22.0374 30.7392 21.0383L30.9885 20.5599L31.1777 20.5554L31.2313 20.5541C32.4244 20.5317 33.6197 20.5411 34.9217 20.5411L34.923 20.5404Z" fill="#C1282D"/>
<path d="M39.2397 20.5331C38.9979 21.45 38.7876 22.2579 38.5725 23.0639C37.8653 25.7146 37.1451 28.3617 36.4567 31.0176L36.3144 31.4863C36.2208 31.6852 36.0856 31.783 35.8714 31.8145C35.7992 31.8253 35.7183 31.8282 35.626 31.8253C35.4876 31.8207 35.3494 31.8171 35.211 31.8145C34.3403 31.7967 33.4589 31.8145 32.5054 31.8145C32.6347 31.2965 32.7397 30.8399 32.8609 30.3878C33.652 27.4365 34.4524 24.4884 35.2308 21.5341L35.2321 21.5283L35.4791 20.4912L39.2397 20.5331Z" fill="#C1282D"/>
<path d="M35.2115 31.8143H32.5059C33.4594 31.8143 34.3408 31.7965 35.2115 31.8143Z" fill="#C1282D"/>
<path d="M36.3148 31.4866L36.2147 31.8148H35.8718C36.0863 31.7833 36.2212 31.6855 36.3148 31.4866Z" fill="#C1282D"/>
<path d="M12.9909 34.4936C12.871 34.2671 12.6887 34.1583 12.3543 34.1696C11.4475 34.2021 10.5388 34.1943 9.63142 34.1719C9.30772 34.1644 9.1592 34.2775 9.06787 34.5417L9.17935 34.1375H12.8652L12.9909 34.4936Z" fill="#C1282D"/>
<path d="M21.8495 34.1797C20.8852 34.1797 20.0077 34.2587 19.1513 34.1596C19.1263 34.1567 19.1016 34.1537 19.0769 34.1521L21.8495 34.1794V34.1797Z" fill="#C1282D"/>
<path d="M44.2857 37.179L44.2421 37.334H43.9116C44.0692 37.3135 44.2545 37.2563 44.2854 37.179H44.2857Z" fill="#C1282D"/>
<path d="M53.4108 40.825L53.3439 41.0875L52.9688 41.0953L52.4745 41.1064L52.4446 41.107L52.4459 41.1064L53.4108 40.825Z" fill="#C1282D"/>
<path d="M52.7489 45.1501L52.7473 45.1553L52.7125 45.2681L52.6631 45.4251L52.2315 45.4199L52.2087 45.4196L52.7489 45.1501Z" fill="#C1282D"/>
</svg>
